<svg width="82" height="105" viewBox="0 0 82 105" fill="none" xmlns="http://www.w3.org/2000/svg">
<path d="M79.614 57.5251C79.3671 57.8587 79.2848 58.3829 79.2848 58.8161C79.2631 66.35 79.2761 73.8839 79.2588 81.4178C79.2544 83.4626 78.3187 85.0309 76.5338 86.01C74.7792 86.9675 72.9986 86.8895 71.3047 85.8194C69.8013 84.8663 69.0129 83.4669 68.9002 81.695C68.8656 81.1188 68.9002 80.5383 68.8872 79.9621C68.8526 78.7621 68.1984 78.0256 67.176 78.0169C66.1492 78.0082 65.4517 78.7491 65.4387 79.9361C65.4214 82.2799 65.4344 84.6237 65.4344 86.9674C65.4344 89.1293 65.4517 91.2911 65.4301 93.4529C65.3997 96.4725 63.0906 98.799 60.188 98.7643C57.3243 98.734 55.0758 96.4249 55.0585 93.4486C55.0368 89.9871 55.0542 86.5299 55.0542 83.0684V82.4532C54.9372 82.3795 54.8246 82.3102 54.7076 82.2366C54.4693 82.5572 54.2657 82.9081 53.9884 83.1897C47.8799 89.3112 41.767 95.4284 35.6498 101.546C31.5081 105.683 26.4826 105.683 22.328 101.528C16.1068 95.3158 9.8899 89.0946 3.68171 82.8734C-0.2087 78.9743 -0.217365 73.8146 3.66005 69.9285C8.64653 64.9247 13.6417 59.9339 18.6368 54.9387C18.8404 54.7351 19.0354 54.5185 19.2563 54.3365C20.0232 53.717 20.9546 53.7343 21.6088 54.3669C22.302 55.0297 22.3323 55.9915 21.6651 56.7973C21.4615 57.0442 21.2145 57.2608 20.9849 57.4905C16.0721 62.4119 11.1506 67.3291 6.23777 72.2463C3.55174 74.9366 3.56041 77.8566 6.2551 80.5513C12.446 86.7465 18.6368 92.9417 24.8277 99.1326C27.531 101.836 30.451 101.849 33.1284 99.1716C40.2117 92.0882 47.2864 84.9919 54.387 77.9259C54.8939 77.4191 55.0672 76.9165 55.0672 76.2233C55.0455 70.1668 55.0542 64.1102 55.0542 58.058C55.0542 57.6984 55.0152 57.3258 55.0888 56.9792C55.2795 56.0565 55.8557 55.5149 56.8261 55.5279C57.7402 55.5452 58.2904 56.0825 58.4767 56.9489C58.5547 57.3302 58.5157 57.7417 58.5157 58.136V92.4175C58.5157 92.7034 58.5114 92.9937 58.52 93.2796C58.546 94.523 59.2522 95.3245 60.2876 95.2941C61.284 95.2638 61.9642 94.4927 61.9642 93.3013C61.9772 88.7567 61.9469 84.2164 61.9815 79.6762C62.0032 77.0421 63.9961 74.85 66.5218 74.5727C69.2165 74.2695 71.6036 75.9591 72.2101 78.6234C72.3184 79.1087 72.3228 79.6199 72.3487 80.1224C72.3704 80.625 72.3054 81.1405 72.3791 81.6344C72.5134 82.5745 73.1069 83.1464 74.0513 83.1637C74.9958 83.181 75.5806 82.6178 75.7756 81.6907C75.8276 81.4481 75.8059 81.1882 75.8059 80.9369V61.3245C74.034 63.1095 72.4744 64.6864 70.9104 66.2634C70.1479 67.0302 69.3898 67.8013 68.6143 68.5508C67.6742 69.4649 66.7081 69.5343 65.9499 68.7804C65.1961 68.0266 65.2611 67.0302 66.1665 66.1204C69.1905 63.0791 72.2274 60.0508 75.2601 57.0182C75.7669 56.5114 76.2868 56.0088 76.7764 55.4803C78.505 53.6 78.8039 50.7147 77.1273 48.8562C75.1647 46.6727 72.9249 44.7405 70.8411 42.7346C70.1783 43.7137 69.5154 44.8748 68.688 45.9015C62.0812 54.1026 49.6951 54.0766 43.0927 45.8799C41.6457 44.0776 40.7966 44.069 39.3756 45.8409C35.1429 51.109 28.2112 53.2881 21.8037 51.3602C15.3616 49.4194 10.752 43.7354 10.1368 36.9727C10.1022 36.5784 10.0892 36.1798 10.0979 35.7856C10.1195 34.6592 10.765 33.9314 11.7485 33.8924C12.7796 33.8491 13.516 34.5726 13.5464 35.7466C13.6027 37.9907 14.1572 40.0919 15.2793 42.0285C19.9365 50.0822 31.0359 50.8534 36.7892 43.5101C38.2838 41.5996 40.0991 40.6768 42.5295 41.253C43.8552 41.5649 44.791 42.4227 45.6184 43.4754C50.7262 49.9999 60.1057 50.3335 65.6207 44.1729C67.6915 41.8638 68.7529 39.1128 68.8742 36.0152C68.9046 35.2137 69.0432 34.5119 69.8143 34.096C70.8844 33.5198 72.1798 34.174 72.3184 35.4087C72.3877 36.0109 72.4137 36.6651 72.2534 37.2369C71.9285 38.3763 72.3574 39.0998 73.1675 39.8623C75.0781 41.6689 76.9063 43.5578 78.7606 45.4293C82.3304 49.0295 82.6206 53.4094 79.614 57.5251Z" fill="white"/>
<path d="M51.3284 29.3829C49.2229 31.8523 47.0871 34.2957 44.8603 36.6481C42.8587 38.7536 39.6052 38.771 37.608 36.6655C35.3249 34.261 33.1371 31.7656 31.0056 29.2269C29.6582 27.624 29.5412 25.7264 30.4337 23.8462C31.3305 21.9616 32.8988 20.9652 34.9913 20.9219C37.0795 20.8829 39.1676 20.9132 41.2601 20.9132C43.2746 20.9132 45.2935 20.8959 47.3124 20.9132C49.5002 20.9349 51.1248 21.9356 52.0346 23.9198C52.927 25.852 52.7147 27.7583 51.3284 29.3829Z" fill="white"/>
<path d="M29.1123 5.39004C29.0863 8.20604 26.7382 10.5282 23.9222 10.5238C21.0586 10.5195 18.7104 8.13672 18.7408 5.2644C18.7711 2.43107 21.0889 0.147949 23.9352 0.147949C26.8162 0.152282 29.1426 2.50039 29.1123 5.39004Z" fill="white"/>
<path d="M63.7015 5.37729C63.6798 8.19329 61.336 10.5197 58.52 10.5241C55.6564 10.5284 53.3039 8.14996 53.3256 5.27764C53.3516 2.40099 55.7127 0.109205 58.6153 0.148195C61.44 0.187186 63.7231 2.5353 63.7015 5.37729Z" fill="white"/>
<path d="M20.2701 33.0781C20.2658 34.0832 19.5943 34.7417 18.5762 34.7547C17.4975 34.7634 16.6657 34.0009 16.6743 33.0001C16.6787 32.0687 17.4411 31.3062 18.3856 31.2975C19.421 31.2845 20.2745 32.0947 20.2701 33.0781Z" fill="white"/>
<path d="M30.646 36.4877C30.6676 37.4928 30.0135 38.1816 29.004 38.2119C27.9253 38.2466 27.0762 37.5144 27.0502 36.5137C27.0242 35.5822 27.7693 34.7937 28.7094 34.7591C29.7449 34.7201 30.6243 35.5042 30.646 36.4877Z" fill="white"/>
<path d="M23.7316 39.9923C23.7273 40.9974 23.0601 41.6603 22.042 41.6733C20.9589 41.6863 20.1315 40.9281 20.1315 39.9274C20.1358 38.9916 20.894 38.2291 21.8384 38.2161C22.8738 38.2031 23.7316 39.0089 23.7316 39.9923Z" fill="white"/>
<path d="M65.7679 32.9912C65.7766 33.914 65.0098 34.7154 64.087 34.7414C63.0819 34.7718 62.1808 33.9399 62.1721 32.9738C62.1591 31.9558 62.796 31.3102 63.8314 31.2929C64.9448 31.2756 65.7593 31.9861 65.7679 32.9912Z" fill="white"/>
<path d="M55.3921 36.492C55.3791 37.4148 54.5906 38.199 53.6722 38.2033C52.6627 38.2076 51.7876 37.3628 51.7919 36.3924C51.8006 35.3483 52.4938 34.7201 53.6029 34.7548C54.6469 34.7851 55.4051 35.5216 55.3921 36.492Z" fill="white"/>
<path d="M62.3108 39.936C62.3064 40.8588 61.5223 41.6516 60.6038 41.6646C59.5944 41.6776 58.7106 40.8415 58.7106 39.8667C58.7106 38.8573 59.3561 38.2204 60.4002 38.2117C61.5093 38.2031 62.3151 38.9309 62.3108 39.936Z" fill="white"/>
</svg>
