<svg width="105" height="105" viewBox="0 0 105 105" fill="none" xmlns="http://www.w3.org/2000/svg">
<path d="M101.674 88.7407C99.2014 85.24 94.8134 83.595 90.7208 84.8435C88.9613 85.3791 87.3707 86.4547 85.6239 87.3277C83.8814 83.4052 81.2233 79.7991 77.831 76.7455C77.9365 76.6316 77.9702 76.5641 78.0293 76.5304C78.2993 76.3659 78.5736 76.214 78.8478 76.058C84.2527 72.9495 88.8559 68.9722 92.2059 63.6537C92.881 62.5824 92.7629 61.6208 91.9275 61.0598C91.0541 60.4651 90.0541 60.7477 89.3622 61.8485C87.7673 64.4002 85.8307 66.6651 83.5354 68.5969C81.835 70.0267 80.0081 71.3131 78.0251 72.8272C78.1432 70.4695 78.8689 68.7276 80.0123 67.1164C82.0249 64.2653 82.797 61.1104 82.2317 57.6477C81.9785 56.0913 81.7042 54.535 81.4891 52.9745C80.9785 49.3135 82.1219 46.1924 85.1809 44.1679C87.2061 42.8266 89.6322 42.0885 91.9022 41.0679C93.5561 46.2219 93.5223 51.4687 91.8895 56.53C91.4802 57.8122 91.7882 58.7527 92.7376 59.0986C93.7713 59.4782 94.6193 58.9467 95.0792 57.6266C96.6657 53.0419 96.9188 48.3561 95.9822 43.6196C95.5096 41.2239 94.8472 38.862 94.3367 36.7447C96.1552 35.3486 98.1298 34.1972 99.6445 32.6113C106.357 25.5889 106.741 13.4503 100.611 5.9048C97.9736 2.66138 94.6194 0.569394 90.4085 0.261501C86.0838 -0.0590455 81.7844 0.269936 77.6116 1.60273C74.9956 2.43362 72.6835 3.74955 70.9578 5.9301C58.7178 -1.67443 46.5579 -1.63225 34.5458 5.86684C33.9171 5.28479 33.4023 4.75336 32.837 4.28941C29.8075 1.81362 26.1874 0.915246 22.4196 0.493475C21.5209 0.39225 20.8838 0.948988 20.7066 1.87267C20.5379 2.75417 21.0611 3.55132 21.9766 3.7622C22.7572 3.94778 23.5673 4.0237 24.3563 4.18819C26.6009 4.65636 28.7865 5.30167 30.605 6.78208C32.4235 8.2625 33.0353 10.0761 32.0817 12.2145C31.3813 13.7835 30.4447 15.3525 29.259 16.584C26.4912 19.4647 24.4027 22.7292 22.7741 26.3438C22.0273 28.0014 21.2129 29.6421 20.2763 31.2026C18.8924 33.5097 17.1118 34.2267 14.4706 33.7839C11.9095 33.3537 9.7577 32.16 8.08266 30.2115C3.86341 25.3147 2.96893 19.6588 4.61444 13.5515C5.58486 9.94115 7.60166 7.0014 10.8716 5.03595C12.4369 4.0954 14.1499 3.66098 15.9684 3.54288C16.9768 3.4754 17.5844 2.75839 17.5591 1.8094C17.5338 0.860416 16.8671 0.227759 15.8461 0.198235C15.4959 0.185582 15.1415 0.219323 14.7955 0.265718C9.72394 0.894157 6.02788 3.62723 3.42461 7.89556C0.80024 12.1934 -0.0225124 16.913 0.715855 21.8604C1.54705 27.4067 4.00265 32.0335 8.82946 35.1715C9.58049 35.6608 10.4117 36.0319 11.264 36.4916C11.0741 37.1074 10.8842 37.7021 10.707 38.301C9.13747 43.5352 8.28096 48.8284 9.43281 54.2777C10.9982 61.6798 15.1077 67.4792 20.9007 72.1524C22.9892 73.8395 25.293 75.2608 27.5249 76.8172C27.3055 77.0238 27.0017 77.2643 26.7486 77.5511C25.5081 78.9303 24.2424 80.2926 23.061 81.7266C22.4196 82.5069 22.5926 83.498 23.3057 84.0716C24.023 84.6495 24.9681 84.5482 25.66 83.8144C25.8499 83.6077 25.9976 83.3631 26.1917 83.1606C27.5629 81.7139 28.9468 80.2757 30.3181 78.8206C30.7316 78.3862 31.1197 78.344 31.6978 78.576C45.6592 84.2024 59.6376 84.1813 73.6033 78.6097C74.2615 78.3482 74.6497 78.4115 75.1686 78.8628C80.2275 83.2618 83.3877 88.7406 84.6324 95.3203C85.2104 98.3908 82.9109 101.217 79.7887 101.263C77.1939 101.297 74.5948 101.271 72 101.271H68.8904C69.1815 100.449 69.4347 99.7615 69.6667 99.074C70.6878 96.0204 71.2236 92.8867 71.2363 89.6728C71.2405 88.5466 70.5148 87.7874 69.5317 87.8085C68.5866 87.8254 67.9369 88.534 67.8736 89.6179C67.8651 89.7613 67.8651 89.9005 67.8609 90.0397C67.7723 93.4771 67.0255 96.7712 65.7471 99.964C65.3673 100.921 64.9074 101.47 63.7725 101.293C63.0172 101.174 62.224 101.212 61.4603 101.288C60.6924 101.364 60.3591 101.031 60.0722 100.36C58.6081 96.9652 57.836 93.435 57.7643 89.7402C57.7432 88.5298 57.0259 87.7664 56.0175 87.8085C55.0386 87.8465 54.3214 88.6099 54.4184 89.7571C54.5956 91.8829 54.7855 94.0212 55.1821 96.1132C55.507 97.8425 56.1356 99.5127 56.6251 101.204H48.6971C48.9714 100.432 49.2287 99.7489 49.4566 99.053C50.4523 96.071 50.9797 93.009 51.0177 89.8626C51.0346 88.6226 50.4059 87.8465 49.3975 87.8085C48.3596 87.7664 47.6887 88.5466 47.6465 89.8499C47.6423 89.9891 47.6465 90.1283 47.6381 90.2717C47.5031 93.8146 46.7225 97.2056 45.3048 100.457C45.0475 101.044 44.7479 101.335 44.0644 101.288C43.0855 101.221 42.0982 101.234 41.1151 101.284C40.4991 101.314 40.1827 101.107 39.9295 100.533C38.4275 97.1212 37.63 93.5573 37.5499 89.8288C37.5245 88.5719 36.8959 87.8254 35.8875 87.8085C34.8369 87.7917 34.166 88.5888 34.1829 89.8836C34.2293 93.4603 34.9086 96.9188 36.1702 100.263C36.2841 100.567 36.3896 100.871 36.533 101.259C32.6809 101.259 28.9932 101.335 25.314 101.238C22.3901 101.162 20.1497 98.2221 20.8163 95.3245C21.3184 93.1524 22.0695 91.0309 22.7825 88.9136C23.2213 87.6187 23.0483 86.7457 22.0821 86.2986C21.0864 85.8389 20.1455 86.2649 19.6645 87.6061C18.9008 89.7445 18.078 91.8913 17.6097 94.1056C16.3608 100.023 20.213 104.641 26.2507 104.646C43.9378 104.646 61.6249 104.65 79.3161 104.641C84.3286 104.641 87.8095 101.335 88.1048 96.3578C88.1217 96.0752 88.2989 95.6619 88.5225 95.5523C91.4929 94.0803 94.4084 93.6627 97.0876 96.9146C98.4631 98.5848 100.763 98.7662 102.514 97.5599C104.231 96.3747 104.817 94.1267 103.809 92.2414C103.168 91.0351 102.463 89.8541 101.674 88.7407ZM74.8142 6.78208C76.9323 5.06126 79.4891 4.41173 82.1009 4.01105C83.9658 3.72424 85.8644 3.62723 87.7504 3.44587C93.9063 3.49649 98.2226 6.34766 100.32 12.1639C102.687 18.7224 101.902 24.8845 97.2606 30.2832C95.3577 32.4932 92.8684 33.7122 89.9022 33.8809C87.9656 33.9905 86.4593 33.2313 85.4298 31.6413C84.6746 30.4645 84.0206 29.2161 83.413 27.9592C81.9279 24.8972 80.603 21.7507 78.3879 19.1147C77.62 18.2036 76.696 17.4107 75.9998 16.4533C75.021 15.1036 73.9957 13.7287 73.3333 12.2145C72.3924 10.0719 72.9915 8.26672 74.8142 6.78208ZM14.4495 37.7274C14.517 37.5081 14.9558 37.2466 15.2047 37.2635C19.1708 37.4997 21.8079 35.5131 23.6137 32.2233C24.6094 30.4139 25.4786 28.5328 26.3562 26.6602C27.6389 23.9397 29.2506 21.4724 31.3813 19.3213C33.5036 17.1787 35.2166 14.7578 35.7482 11.6831C35.7947 11.4047 35.9001 11.1052 35.8368 10.8522C35.4866 9.36754 36.3305 8.69271 37.4866 8.02631C41.2079 5.89215 45.1318 4.37799 49.3975 3.8086C49.6422 3.77907 49.8869 3.7622 50.1316 3.74955C50.3764 3.74111 50.6211 3.74955 50.8574 3.74955C50.908 3.8086 50.9882 3.86343 50.9882 3.91826C50.8574 7.27134 50.8911 10.6455 50.524 13.9775C50.3131 15.8923 49.3764 17.7144 48.9123 19.6166C48.2583 22.2822 48.4018 24.9731 48.9924 27.6471C50.0473 32.4173 48.3174 35.9644 43.9083 38.0775C35.7145 42 27.0777 43.9865 17.9894 43.9865H12.6648C13.2934 41.7553 13.8377 39.7308 14.4495 37.7274ZM74.5737 73.869C74.5822 74.2064 74.1518 74.7125 73.8016 74.877C68.8313 77.1968 63.5868 78.5633 58.144 79.099C49.735 79.9298 41.5455 78.9598 33.6808 75.7838C26.217 72.7682 19.9134 68.2552 15.6942 61.2243C13.4664 57.5085 12.3103 53.4679 12.285 49.1237C12.2808 48.5712 12.3399 48.0186 12.3736 47.3607C14.1373 47.3607 15.8123 47.348 17.4874 47.3649C23.4154 47.4197 29.2759 46.7702 34.9297 45.003C38.6975 43.8262 42.4189 42.4175 45.9968 40.7642C51.1907 38.3601 53.6463 32.9614 52.3721 27.3519C51.5915 23.9271 51.7687 20.612 53.0598 17.339C54.0091 14.9307 54.4353 12.4212 54.4015 9.83149C54.3762 7.83651 54.3973 5.84153 54.3973 3.53444C56.393 3.92247 58.2832 4.18397 60.1144 4.66901C63.2872 5.50833 66.2238 6.92548 68.9706 8.71801C69.2575 8.90781 69.5613 9.3591 69.5444 9.67121C69.3883 12.4971 70.5022 14.8674 72.1097 17.0691C72.519 17.6343 72.9409 18.2121 73.4472 18.6887C76.3669 21.4386 78.2951 24.8254 79.9068 28.4442C80.6072 30.009 81.3962 31.5443 82.2907 33.0036C84.0544 35.8885 86.607 37.4322 90.0837 37.2593C90.3959 37.2424 90.725 37.4491 91.0456 37.5503C91.033 37.6768 91.0246 37.7991 91.0119 37.9257C89.5858 38.4697 88.1681 39.0223 86.7378 39.5495C80.3372 41.9156 77.1221 47.4324 78.2318 54.1639C78.4512 55.4798 78.6622 56.7957 78.89 58.1074C79.3119 60.5368 78.89 62.8228 77.4681 64.822C75.5273 67.5466 74.4978 70.5075 74.5737 73.869ZM100.526 94.7635C100.366 94.9027 99.9609 94.8015 99.6824 94.734C99.539 94.6961 99.4335 94.4978 99.3154 94.3671C96.4167 91.1152 92.7122 90.2295 88.6533 91.8196C88.2989 91.963 87.9445 92.1022 87.5395 92.2667C86.9699 91.5496 87.2061 91.111 87.6956 90.5627C90.7208 87.2054 94.2143 87.353 96.7037 88.6985C98.8175 89.8415 99.7204 91.9545 100.83 93.8905C100.936 94.076 100.733 94.578 100.526 94.7635Z" fill="white"/>
<path d="M69.4091 62.2449C67.561 59.7649 65.1476 59.0985 61.9621 60.1993C61.2701 60.4355 60.6204 60.4988 60.1352 60.0517C60.8862 58.4532 61.7385 56.9854 62.2743 55.4122C63.6751 51.3168 62.2195 47.5462 58.3926 45.5132C57.0298 44.792 55.456 44.3365 53.9287 44.1003C51.1988 43.6785 48.6335 44.3787 46.3214 45.9013C45.4395 46.4833 45.2201 47.4829 45.7391 48.2758C46.2496 49.0645 47.1357 49.2628 48.0513 48.782C48.3297 48.6343 48.5829 48.4445 48.8656 48.3054C51.5828 46.9641 54.2957 47.0147 56.9201 48.5036C59.1183 49.752 59.8736 51.7259 59.169 54.1469C58.6416 55.9605 57.7133 57.5632 56.4011 58.9213C53.9498 61.4562 51.452 61.4773 49.0386 58.9298C47.3087 57.1035 46.1526 54.9736 45.9627 52.4008C45.8868 51.3927 45.1695 50.7305 44.2666 50.739C43.3173 50.7516 42.6042 51.4982 42.6169 52.5442C42.6211 53.1009 42.7055 53.6661 42.8067 54.2144C43.832 59.6468 48.0555 63.7759 53.0806 64.2694C53.1017 64.2989 53.127 64.3242 53.1397 64.358C53.2789 64.6785 53.4097 65.0033 53.5489 65.3238C55.1691 69.0734 57.9074 71.6335 61.7891 72.9157C64.616 73.8478 67.7256 72.7976 69.4513 70.4019C71.2233 67.9388 71.2065 64.6574 69.4091 62.2449ZM63.2152 69.7904C59.785 68.8794 57.5825 66.5976 56.38 63.3331C57.0382 62.5064 57.6163 62.5697 58.3209 62.9746C59.8609 63.8561 61.5697 64.1724 63.1435 63.3162C65.1729 62.2069 67.3248 64.088 67.4049 66.2559C67.4851 68.4618 65.3333 70.3555 63.2152 69.7904Z" fill="white"/>
<path d="M74.603 28.8408C74.5904 29.8868 73.8183 30.4984 72.4934 30.5026C70.9534 30.5111 69.4134 30.5068 67.8733 30.5068C66.3333 30.5068 64.7933 30.5111 63.2533 30.5026C61.9158 30.4984 61.1563 29.8953 61.1394 28.8451C61.1226 27.7906 61.8905 27.1369 63.1984 27.1327C66.3122 27.1242 69.426 27.1242 72.5398 27.1327C73.8478 27.1369 74.6199 27.7906 74.603 28.8408Z" fill="white"/>
<path d="M44.2793 28.8154C44.2793 29.8065 43.5451 30.4856 42.4017 30.4983C40.79 30.5193 39.1824 30.5025 37.5707 30.5025C35.9631 30.5067 34.3514 30.5193 32.7439 30.4983C31.5414 30.4856 30.7819 29.7855 30.8157 28.7648C30.8452 27.782 31.5751 27.141 32.7439 27.1367C35.9631 27.1241 39.1824 27.1199 42.4017 27.1367C43.5493 27.1452 44.2793 27.8284 44.2793 28.8154Z" fill="white"/>
</svg>
