<svg width="90" height="105" viewBox="0 0 90 105" fill="none" xmlns="http://www.w3.org/2000/svg">
<path d="M71.3265 99.9642L85.317 99.9264V104.647L70.4139 104.684C70.2314 104.678 70.0615 104.672 69.8852 104.672C66.6378 104.665 63.3903 104.684 60.1428 104.659C57.0149 104.64 55.4038 103.363 54.6297 100.373C53.4087 95.6531 49.8907 92.7959 45.3153 92.8022C40.6958 92.8022 37.1651 95.7286 35.9756 100.543C35.3211 103.174 33.6785 104.628 30.9534 104.647C22.4697 104.697 13.986 104.703 5.5023 104.647C2.3744 104.621 0.492635 102.494 0.492635 99.2342C0.486342 78.7613 0.486342 58.2947 0.492635 37.8218C0.492635 35.726 1.33597 34.6498 2.91565 34.6939C4.4261 34.7316 5.2065 35.7701 5.2065 37.8029V99.8069H31.2303C31.3562 99.3726 31.4883 98.8754 31.6268 98.3782C33.3323 92.349 38.8581 88.1386 45.1264 88.0883C51.571 88.0316 57.1786 92.0469 58.8904 98.1705C59.2995 99.6432 59.8911 100.033 61.326 99.9768C64.2022 99.8635 67.0909 99.8761 69.9671 99.9768" fill="white"/>
<path d="M84.9017 104.647C88.0296 104.621 89.9114 102.494 89.9114 99.2342C89.9177 78.7613 89.9177 58.2947 89.9114 37.8218C89.9114 35.726 89.0681 34.6498 87.4884 34.6939C85.9779 34.7316 85.1975 35.7701 85.1975 37.8029V99.8069" fill="white"/>
<path d="M89.9177 3.74844V41.6167H85.3548V17.8145H85.3423V4.96939H59.4632C57.0591 12.5468 52.4081 16.5306 45.7496 16.7572C38.9966 16.9963 34.5974 13.4468 31.1171 4.93792H5.20658V6.66235C5.20658 12.9999 5.21916 19.3312 5.20028 25.6688C5.20028 27.4751 4.25625 28.5135 2.75839 28.4632C1.49339 28.4191 0.517887 27.5066 0.511593 26.122C0.480125 18.9977 0.454951 11.8797 0.52418 4.7617C0.549354 2.23799 2.67028 0.192586 5.21287 0.179999C13.9043 0.135944 22.6019 0.135944 31.2933 0.186292C33.7478 0.198879 35.3401 1.75968 36.0072 4.43443C37.0141 8.47489 39.5064 11.0301 43.6224 11.8419C48.4684 12.7923 53.1948 9.79653 54.5039 5.02603C55.6053 1.03592 56.7696 0.154825 60.9485 0.154825H84.5115C87.5009 0.161118 89.3198 1.35689 89.9177 3.74844Z" fill="white"/>
<path d="M65.1841 42.6993C63.7303 35.1281 57.7136 30.7856 50.9166 32.7681C47.0838 33.882 43.5343 33.9135 39.7204 32.7555C34.5156 31.1821 29.7388 33.4037 27.1144 38.1679C25.3774 41.3336 24.8047 44.751 25.1383 48.332C25.5222 52.3724 27.2466 55.9346 29.0403 59.503C30.5507 62.5239 31.8723 65.6518 33.0996 68.7986C33.9618 71.0265 35.2834 72.3104 37.4736 72.4614C39.84 72.6188 41.7721 71.5866 42.5651 69.3587C43.0812 67.9112 43.163 66.3063 43.421 64.7707C43.6161 63.6442 43.6665 62.4736 44.0063 61.3974C44.1573 60.9317 44.8748 60.3589 45.3342 60.3589C45.7874 60.3589 46.5111 60.9505 46.637 61.4163C46.9831 62.7127 47.0398 64.0847 47.2915 65.4064C47.5684 66.8853 47.7195 68.4336 48.2985 69.7867C49.1544 71.8006 51.0802 72.6817 53.3396 72.4426C55.4228 72.216 56.6752 71.0328 57.4556 69.0881C58.8213 65.7085 60.2311 62.3414 61.8422 59.0814C63.8058 55.1164 65.6183 51.1452 65.6624 46.5824C65.505 45.2922 65.4295 43.9769 65.1841 42.6993ZM60.1052 51.2648C59.8031 52.2592 59.4192 53.2472 58.966 54.1787C56.8137 58.6282 54.6298 63.0526 52.3641 67.6595C52.2445 66.8476 52.1313 66.0043 51.9991 65.1672C51.697 63.3232 51.6089 61.41 51.0299 59.6541C50.1614 56.9982 47.8894 55.5318 45.3279 55.5318C42.7665 55.5318 40.5134 57.0171 39.6071 59.6478C39.0847 61.1519 38.9778 62.8008 38.726 64.3931C38.5561 65.4819 38.4554 66.5896 38.2918 67.9112C37.8764 67.5776 37.7128 67.5147 37.6561 67.3951C36.1457 63.9651 34.5786 60.5603 33.1625 57.0926C31.9668 54.1598 30.7395 51.2144 29.9276 48.1684C29.2542 45.6383 29.871 43.0643 31.1045 40.7294C32.7975 37.5008 35.5289 36.2295 38.9652 37.3938C43.2574 38.8413 47.4111 38.8413 51.7033 37.3875C55.1459 36.2169 57.8521 37.4945 59.5513 40.742C61.3324 44.1531 61.1814 47.7026 60.1052 51.2648Z" fill="white"/>
</svg>
