<svg width="101" height="100" viewBox="0 0 101 100" fill="none" xmlns="http://www.w3.org/2000/svg">
<path d="M50.6335 43.981C53.4779 43.981 56.1835 44.7174 58.5422 46.5249C58.8891 46.7927 59.0972 46.9936 58.6809 47.3952C56.0447 50.207 53.4779 53.0857 50.8417 55.8975C50.5642 56.2322 50.3561 56.0983 50.1479 55.8305C49.3154 54.7594 48.4136 53.7552 47.6505 52.684C45.8467 50.3409 42.7943 50.6756 41.268 52.2154C40.0193 53.4874 39.7418 55.5627 40.7824 57.0355C42.933 59.9812 45.0142 62.9268 47.3036 65.8055C49.0379 68.0148 52.021 67.9478 53.8248 65.8055C57.2241 61.7887 60.6234 57.772 64.0228 53.7552C64.2309 53.4874 64.439 53.2196 64.7165 53.6213C66.4509 55.8975 68.6708 57.705 70.4746 59.9142C71.9314 61.6549 73.1801 63.4624 73.5964 65.7386C74.3595 69.6884 72.2783 74.2408 67.9077 75.3789C65.8959 75.9145 63.884 75.7136 61.9415 75.245C59.9297 74.7764 57.9872 74.04 56.0447 73.3705C52.1598 72.0316 48.2748 72.0985 44.4592 73.5044C42.2393 74.3078 39.9499 75.1781 37.5912 75.5128C35.5794 75.8475 33.5675 75.8475 31.6944 74.9772C28.9194 73.7052 27.6013 71.4291 27.1851 68.5504C26.7688 65.9394 27.7401 63.6633 29.1969 61.521C30.5844 59.5126 32.3881 57.772 34.1225 56.0313C35.9262 54.2238 37.3137 52.0815 38.8399 50.14C40.4355 48.1316 42.1699 46.3241 44.598 45.2529C46.4711 44.3157 48.4136 43.981 50.6335 43.981Z" fill="white"/>
<path d="M32.1801 33.5374C32.2494 30.7257 32.735 27.4453 34.5388 24.5666C35.7875 22.4912 37.5912 21.2192 40.1581 21.3531C42.3087 21.487 43.8349 22.6251 45.0836 24.2318C46.818 26.508 47.5117 29.1189 47.928 31.7968C48.2055 33.6044 48.2749 35.4789 47.928 37.3534C47.4424 40.0312 45.9855 41.9057 43.4187 42.9769C42.2393 43.4455 41.0599 43.9141 39.8112 43.9811C36.5506 44.2489 34.2613 42.7091 33.0819 39.6296C32.3882 37.8889 32.1801 36.0144 32.1801 33.5374Z" fill="white"/>
<path d="M61.8028 44.0479C58.8891 43.7132 56.2529 42.9098 54.3798 40.6336C53.4779 39.4956 53.0617 38.1566 52.9229 36.7507C52.576 32.8009 53.0617 29.0519 55.0041 25.5037C56.1141 23.4953 57.7097 21.8886 60.1378 21.42C62.219 21.0183 63.9534 21.6878 65.3409 23.1606C67.0752 25.0351 67.8383 27.3113 68.324 29.6544C68.9483 33.0017 69.0871 36.3491 67.9077 39.5625C67.1446 41.7717 65.6878 43.3785 63.2597 43.914C62.7047 44.0479 62.2884 44.0479 61.8028 44.0479Z" fill="white"/>
<path d="M33.2207 49.6046C33.1513 52.7511 31.6944 55.2281 29.1276 57.1026C27.0464 58.6424 24.202 58.0399 22.3983 55.8306C20.664 53.8222 19.8315 51.4122 19.4846 48.8682C19.2071 46.7929 19.2765 44.7175 19.9008 42.7091C20.109 41.9727 20.3865 41.2363 20.8721 40.5668C21.9821 38.9601 23.5777 38.2906 25.5201 38.9601C29.5438 40.366 31.9719 43.1777 32.9432 47.1945C33.1513 47.9979 33.2207 48.8013 33.2207 49.6046Z" fill="white"/>
<path d="M81.5745 47.0607C81.4357 50.1402 80.742 53.2198 78.4526 55.8976C76.0939 58.5755 72.7639 58.5755 70.3358 55.9646C68.6709 54.0901 67.6302 52.0147 67.6302 49.5377C67.6996 45.1192 70.6827 40.8346 74.7064 39.2949C77.3426 38.2907 79.4239 39.161 80.5338 41.7049C81.3663 43.2447 81.5745 44.9853 81.5745 47.0607Z" fill="white"/>
<path d="M44.3206 52.751C45.1531 52.6841 45.7774 53.1527 46.2631 53.8222C47.2343 55.0272 48.2749 56.2992 49.2461 57.5042C50.2868 58.8431 50.4949 58.8431 51.6049 57.6381C54.6573 54.3577 57.7098 51.0773 60.6929 47.73C61.0397 47.3953 61.3172 46.9936 61.6641 46.6589C62.6354 45.7216 63.9535 45.6547 64.8553 46.458C65.8959 47.3283 66.0347 48.6003 65.1328 49.6715C62.9822 52.2824 60.7622 54.8933 58.5423 57.5042C56.5304 59.9143 54.4492 62.3244 52.4373 64.7344C51.1886 66.2073 49.5236 66.1403 48.3443 64.6675C47.4424 63.4625 46.5405 62.2574 45.6387 60.9854C44.5287 59.4457 43.4187 57.9728 42.3087 56.4331C41.4069 55.1611 41.6844 53.7552 43.0025 53.0188C43.4881 52.751 43.835 52.751 44.3206 52.751Z" fill="white"/>
<path d="M68.3934 87.0278C70.9602 87.0278 72.9027 89.0362 72.9027 91.6472C72.9027 94.1242 70.544 96.1995 67.8384 96.1995C65.3409 96.1995 63.2597 94.1242 63.2597 91.5133C63.1903 89.1032 65.549 87.0278 68.3934 87.0278ZM65.6184 91.3794C65.6184 92.9191 66.7284 94.1242 68.1159 94.1911C69.434 94.1911 70.544 93.12 70.544 91.848C70.544 90.3752 69.3646 89.1032 68.0465 89.1032C66.659 89.0362 65.6184 90.0404 65.6184 91.3794Z" fill="white"/>
<path d="M68.324 3.6123C71.0989 3.6123 73.4577 5.68765 73.4577 8.09773C73.4577 10.6417 71.3071 12.784 68.8096 12.784C66.104 12.784 63.7453 10.6417 63.6759 8.23162C63.7453 5.6207 65.7571 3.6123 68.324 3.6123ZM71.0989 7.89689C71.0989 6.6249 69.9889 5.55376 68.6015 5.55376C67.2834 5.55376 66.0346 6.89269 66.0346 8.36551C66.0346 9.57055 67.1446 10.6417 68.4627 10.6417C69.8502 10.7086 71.0989 9.36971 71.0989 7.89689Z" fill="white"/>
<path d="M89.8299 29.7214C88.3731 29.7214 87.2631 29.0519 86.3612 28.0477C85.6675 27.2443 85.1125 26.374 84.6269 25.4368C84.28 24.7673 84.3494 24.3656 84.9737 23.964C86.7775 22.8259 88.5812 21.6878 90.3849 20.6166C91.148 20.148 91.6337 20.2819 92.1193 21.0183C92.813 22.0895 93.7149 23.1606 94.0618 24.4326C94.8249 27.1104 92.7436 29.7214 89.8299 29.7214ZM89.6912 27.5791C90.3849 27.5121 91.148 27.1774 91.703 26.5079C92.4662 25.5707 92.1887 23.6962 91.148 22.9598C90.9399 22.8259 90.8012 22.8928 90.593 22.9598C89.4831 23.6292 88.3731 24.2987 87.2631 25.0351C87.055 25.169 86.9162 25.3029 86.9856 25.5707C87.2631 26.5079 88.5812 27.5791 89.6912 27.5791Z" fill="white"/>
<path d="M89.1362 70.8936C92.5356 70.8936 94.5474 74.3748 92.813 77.4544C92.3968 78.2577 91.8418 78.9941 91.2868 79.7305C90.8012 80.4 90.3156 80.467 89.5525 79.9983C87.8181 78.8602 86.0838 77.7891 84.4188 76.5841C83.5863 76.0485 83.5169 75.5129 84.1413 74.6426C84.835 73.7723 85.3206 72.7681 86.2225 72.0317C86.9856 71.3622 87.8875 70.8267 89.1362 70.8936ZM88.5119 73.0359C87.61 73.0359 86.9856 73.9062 86.3613 74.7765C86.1531 75.1112 86.1531 75.2451 86.5 75.446C87.3325 75.9815 88.165 76.5171 88.9975 77.0527C90.385 77.9899 90.5237 77.923 91.2174 76.3832C91.9112 74.7765 90.6624 73.0359 88.5119 73.0359Z" fill="white"/>
<path d="M58.9585 89.9734C60.9704 89.9734 62.2885 91.4462 61.7335 93.1199C61.5947 93.5885 61.3172 93.9902 60.901 94.3249C60.6235 94.5258 60.6235 94.7266 60.901 94.9274C61.3866 95.3961 61.9416 95.8647 62.4272 96.3333C62.9822 96.8689 62.9822 97.4045 62.566 97.8731C62.0803 98.2748 61.5253 98.2748 60.9704 97.7392C60.2072 97.0697 59.5135 96.3333 58.8198 95.5969C58.6116 95.3961 58.4035 95.1283 58.0566 95.2622C57.7098 95.463 57.9179 95.7308 57.9179 95.9986C57.9873 96.5342 58.126 97.0697 58.1954 97.5384C58.2648 98.2078 57.9873 98.6764 57.3629 98.8103C56.7385 98.9442 56.1835 98.6764 56.1142 98.007C55.6979 95.8647 55.2817 93.7893 54.9348 91.6471C54.7961 90.7767 55.1429 90.442 56.0448 90.2412C56.9467 90.1742 57.9873 89.9734 58.9585 89.9734ZM58.5423 91.714C58.1954 91.7809 57.8485 91.8479 57.5016 91.9148C57.2935 91.9818 57.1548 92.0487 57.1548 92.2496C56.9467 93.4546 57.5016 93.9232 58.681 93.5885C58.7504 93.5885 58.8198 93.5216 58.9585 93.5216C59.4441 93.3207 59.7216 93.0529 59.6522 92.5174C59.5829 91.9148 59.0973 91.714 58.5423 91.714Z" fill="white"/>
<path d="M62.7741 4.08082C62.7047 4.88418 62.2885 5.75449 61.1785 6.08922C60.6235 6.29006 60.6235 6.55785 60.901 6.95953C61.1785 7.42815 61.456 7.96372 61.6641 8.43235C62.011 9.16876 61.8722 9.77128 61.3172 10.0391C60.6235 10.3069 60.0685 10.0391 59.7216 9.23571C59.3747 8.3654 58.9585 7.56204 58.5423 6.69174C58.4035 6.42395 58.2648 6.15617 57.9179 6.15617C57.571 6.22311 57.571 6.55785 57.571 6.75869C57.4323 7.29426 57.3629 7.82983 57.2241 8.29846C57.016 9.03487 56.5998 9.30266 55.9754 9.23571C55.351 9.10182 55.0042 8.70014 55.1429 7.96372C55.4898 5.88838 55.906 3.81304 56.3223 1.73769C56.461 1.00128 56.8773 0.733493 57.6404 0.800439C58.681 0.934332 59.6522 1.13517 60.6928 1.40296C62.0803 1.73769 62.7741 2.67494 62.7741 4.08082ZM59.3054 4.75029C60.2072 4.81723 60.8316 4.14777 60.4847 3.4783C60.2766 3.14357 58.8891 2.608 58.5423 2.80884C58.4035 2.87578 58.3341 3.00968 58.3341 3.14357C58.2648 3.4783 58.1954 3.81304 58.1954 4.14777C58.126 4.4825 58.2648 4.68334 58.6116 4.68334C58.8197 4.68334 59.0279 4.75029 59.3054 4.75029Z" fill="white"/>
<path d="M30.0988 11.5788C30.1682 9.50349 30.2375 7.4951 30.3763 5.41975C30.3763 5.21891 30.4457 5.01807 30.4457 4.81723C30.7232 3.74609 31.9025 3.27746 32.8738 4.08082C34.6081 5.62059 36.3425 7.22731 38.0768 8.83403C38.6318 9.3696 38.6318 10.106 38.2156 10.5746C37.73 11.0433 37.1056 10.9763 36.5506 10.3738C35.9956 9.77128 35.51 9.70433 34.8162 10.0391C34.1919 10.3738 33.5675 10.5746 32.9431 10.7755C32.5269 10.9094 32.3188 11.1772 32.3881 11.5788C32.3881 11.6458 32.3881 11.6458 32.3881 11.7127C32.3881 12.7839 31.9719 13.2525 31.2088 13.2525C30.4457 13.2525 30.0294 12.65 30.0988 11.5788ZM32.2494 7.62899C32.2494 7.82983 32.2494 7.96372 32.2494 8.16456C32.2494 9.10181 32.3188 9.10181 33.1513 8.76708C34.2612 8.29846 34.5387 8.56624 33.3594 7.29426C33.0819 7.02647 32.735 6.42395 32.3881 6.55784C32.0413 6.69174 32.3881 7.29426 32.2494 7.62899Z" fill="white"/>
<path d="M36.3425 95.9986C36.3425 96.6011 35.9262 97.0697 35.2325 97.1367C34.5387 97.1367 34.0531 96.735 34.0531 95.9316C34.1225 95.0613 33.7062 94.6596 32.8737 94.4588C32.2494 94.3249 31.6944 94.0571 31.1394 93.7893C30.7232 93.6554 30.4457 93.6554 30.1682 93.9902C30.0294 94.1241 29.8907 94.2579 29.7519 94.3918C29.2663 94.8605 28.5726 94.8605 28.1563 94.3918C27.7401 93.9902 27.7401 93.3876 28.2257 92.919C29.4744 91.714 30.7232 90.5759 31.9025 89.3708C32.3881 88.9022 32.9431 88.4336 33.4287 87.965C33.9144 87.5633 34.4 87.4294 35.0243 87.6972C35.5793 87.898 35.8568 88.3666 35.9262 88.9692C36.065 91.3123 36.2037 93.5885 36.3425 95.9986ZM34.0531 90.442C33.9837 90.442 33.9144 90.375 33.845 90.375C33.29 90.9106 32.8044 91.3792 32.2494 91.9148C31.9719 92.1826 32.0413 92.3165 32.3881 92.4504C32.8044 92.5843 33.1512 92.7182 33.5675 92.8521C33.9144 92.986 34.0531 92.8521 34.0531 92.5173C34.0531 91.8479 34.0531 91.1115 34.0531 90.442Z" fill="white"/>
<path d="M88.0956 18.5414C87.7487 18.5414 87.4712 18.3405 87.2631 18.1397C86.7081 17.6041 86.1531 17.1355 85.6675 16.5999C85.2513 16.1313 84.9738 16.533 84.7657 16.7338C84.4882 17.0016 84.1413 17.2025 84.6269 17.6711C85.1125 18.1397 85.5981 18.6083 86.0838 19.077C86.5694 19.6125 86.6388 20.0142 86.2225 20.4159C85.8063 20.8176 85.39 20.8176 84.835 20.282C84.3494 19.8803 83.9332 19.4117 83.5169 18.9431C83.1007 18.4744 82.7538 18.4744 82.4069 18.9431C82.3376 19.077 82.1988 19.1439 82.1294 19.2109C81.8519 19.4786 81.8519 19.6795 82.1294 19.9473C82.6844 20.4828 83.2394 21.0184 83.7944 21.6209C84.3494 22.2235 84.4188 22.6921 84.0025 23.1607C83.5863 23.5624 83.0313 23.4954 82.4763 22.9599C81.5744 22.0896 80.6726 21.1523 79.7707 20.2151C79.2851 19.7464 79.2851 19.1439 79.7707 18.6753C81.3663 17.1355 82.9619 15.6627 84.6269 14.1899C85.0431 13.7882 85.5981 13.7882 86.0144 14.2568C86.9856 15.1941 88.0262 16.1313 88.9281 17.1355C89.2056 17.4033 89.275 17.738 89.0668 18.1397C88.7893 18.3405 88.5119 18.4744 88.0956 18.5414Z" fill="white"/>
<path d="M21.1496 19.6795C21.1496 20.0812 21.0109 20.3489 20.8027 20.5498C19.9009 21.487 19.0684 22.4243 18.1665 23.2946C17.6115 23.8971 17.0565 23.8971 16.5016 23.4285C14.8366 22.0226 13.241 20.5498 11.6454 19.077C11.1597 18.6753 11.1597 18.1397 11.576 17.738C12.4778 16.7338 13.4491 15.7296 14.4897 14.7254C14.8366 14.3238 15.3222 14.3907 15.7384 14.7924C16.1547 15.1271 16.1547 15.5957 15.8078 15.9974C15.2528 16.5999 14.6978 17.2025 14.1428 17.738C13.796 18.0728 13.796 18.2736 14.1428 18.6083C14.4897 18.8761 14.7672 19.3447 15.2528 18.8092C15.5997 18.4075 15.9466 18.0728 16.2934 17.6711C16.4322 17.4702 16.6403 17.2694 16.8484 17.1355C17.2647 16.8008 17.6809 16.8008 18.0972 17.1355C18.444 17.4702 18.444 17.8719 18.1665 18.2736C17.6809 18.8092 17.1259 19.3448 16.6403 19.8803C16.4322 20.1481 16.0853 20.4159 16.5709 20.6837C16.9872 20.8845 17.1953 21.7548 17.889 21.0184C18.444 20.4159 18.999 19.8134 19.554 19.2778C19.9009 18.9431 20.2478 18.7422 20.7334 18.9431C21.0109 19.077 21.1496 19.4117 21.1496 19.6795Z" fill="white"/>
<path d="M88.4424 82.6762C88.4424 82.944 88.3037 83.2118 88.0956 83.3457C87.1243 84.283 86.2225 85.2202 85.2512 86.0905C84.6269 86.693 84.1413 86.6261 83.5169 86.0905C82.06 84.6846 80.6032 83.2788 79.1463 81.8729C78.3832 81.1365 78.3832 80.6678 79.1463 79.9314C79.9788 79.1281 80.8113 78.3247 81.6438 77.5213C82.06 77.1197 82.5456 76.9188 83.0313 77.3205C83.5863 77.7222 83.5169 78.3247 82.9619 78.8603C82.4763 79.3289 81.9907 79.7975 81.4357 80.1992C81.0194 80.5339 81.0194 80.8017 81.4357 81.1365C81.7825 81.4043 81.9907 81.8059 82.5456 81.2704C83.0313 80.7348 83.5863 80.1992 84.2106 79.7306C84.6269 79.3959 85.0431 79.3959 85.4594 79.7975C85.8062 80.1992 85.8062 80.6009 85.4594 81.0026C84.9044 81.5381 84.3494 82.0737 83.7944 82.6093C83.5169 82.8771 83.5169 83.0779 83.7944 83.3457C83.9331 83.4796 84.0719 83.6135 84.2106 83.7474C84.4881 84.0821 84.6962 84.0152 84.9737 83.7474C85.5981 83.1449 86.2225 82.5423 86.8468 81.9398C87.1937 81.6051 87.5406 81.5381 87.9568 81.739C88.2343 82.0068 88.4424 82.2746 88.4424 82.6762Z" fill="white"/>
<path d="M21.6352 80.2662C21.6352 80.601 21.427 80.8688 21.1495 81.0026C20.7333 81.2035 20.317 81.0696 19.9702 80.8018C19.4846 80.3332 19.0683 79.8646 18.5827 79.329C18.0277 78.7934 17.9583 78.7934 17.334 79.329C16.779 79.7976 17.1258 79.9985 17.4727 80.3332C17.9583 80.8018 18.3746 81.2704 18.7908 81.7391C19.1377 82.1407 19.2764 82.6094 18.7908 82.9441C18.3746 83.2788 17.8889 83.2788 17.4727 82.8772C16.9871 82.4085 16.4321 81.9399 15.9465 81.4043C15.2527 80.6679 14.9752 81.5382 14.559 81.7391C14.0734 82.0068 14.4896 82.2746 14.6977 82.4755C15.2527 83.011 15.8077 83.6136 16.2933 84.1491C16.779 84.6847 16.779 85.1533 16.3627 85.555C15.9465 85.9567 15.5302 85.9567 14.9752 85.4211C14.1427 84.6178 13.2409 83.7475 12.4084 82.9441C11.5759 82.1407 11.6453 81.5382 12.4778 80.7349C13.9346 79.4629 15.3221 78.1239 16.779 76.852C17.4727 76.1825 18.0277 76.2494 18.7214 76.9189C19.4846 77.7223 20.317 78.5256 21.0802 79.329C21.427 79.5968 21.6352 79.9315 21.6352 80.2662Z" fill="white"/>
<path d="M47.0955 95.597C47.0261 94.5258 47.2342 93.1869 47.2342 91.848C47.2342 91.0446 47.6505 90.6429 48.4829 90.6429C49.5929 90.6429 50.7029 90.576 51.7435 90.8438C53.131 91.1785 53.9635 92.0488 53.9635 93.3208C53.9635 94.7267 53.0616 95.6639 51.6048 95.9317C51.0498 96.0656 50.4948 96.0656 49.8704 96.0656C49.4542 96.0656 49.3154 96.2664 49.3154 96.6012C49.3154 97.1368 49.3154 97.6054 49.3154 98.141C49.2461 98.8774 48.8992 99.279 48.2054 99.279C47.5117 99.279 47.0955 98.9443 47.0955 98.141C47.0955 97.4045 47.0955 96.6681 47.0955 95.597ZM50.0785 94.325C51.1192 94.325 51.6048 93.9903 51.6048 93.3208C51.6048 92.6513 51.0498 92.3166 50.0092 92.3835C48.8992 92.4505 49.5236 93.3208 49.3848 93.7894C49.2461 94.3919 49.7317 94.325 50.0785 94.325Z" fill="white"/>
<path d="M49.7318 0.398817C50.4255 0.398817 51.1192 0.33187 51.813 0.465763C53.1311 0.73355 53.7555 1.53691 53.8942 2.80889C53.9636 4.01393 53.3392 5.01813 52.0905 5.41981C51.4661 5.6876 50.8417 5.75454 50.2174 5.6876C49.593 5.62065 49.3849 5.88844 49.4543 6.49096C49.4543 6.95958 49.4543 7.42821 49.4543 7.96378C49.3849 8.63325 49.038 9.03493 48.4137 9.03493C47.7893 9.03493 47.3037 8.63325 47.3037 7.96378C47.2343 5.88844 47.1649 3.81309 47.1649 1.6708C47.1649 0.73355 47.5812 0.398817 48.483 0.398817C48.8993 0.398817 49.3155 0.398817 49.7318 0.398817ZM50.2868 2.13943C49.9399 2.20637 49.5236 2.00554 49.4543 2.34027C49.3849 2.80889 49.2461 3.41141 49.593 3.81309C49.8705 4.14783 50.3561 3.94699 50.7724 3.94699C50.9111 3.94699 51.0499 3.88004 51.1886 3.81309C51.4661 3.6792 51.6049 3.34447 51.6049 3.00973C51.6049 2.60805 51.3967 2.34027 50.9805 2.20637C50.7724 2.13943 50.4949 2.13943 50.2868 2.13943Z" fill="white"/>
<path d="M41.9619 1.06836C43.9737 1.06836 44.8756 1.73783 45.1531 3.21065C45.4306 4.54958 44.6675 5.68767 43.2106 6.1563C42.7944 6.29019 42.3087 6.42409 41.8231 6.49103C41.3375 6.55798 41.1988 6.75882 41.3375 7.22745C41.4763 7.69607 41.5456 8.23164 41.615 8.70027C41.6844 9.43668 41.3375 9.97226 40.7131 10.0392C40.0888 10.1731 39.6032 9.83836 39.4644 9.10195C39.0482 6.95966 38.6319 4.88432 38.2157 2.74202C38.0769 2.1395 38.4238 1.73783 39.0482 1.60393C40.0888 1.33615 41.1988 1.06836 41.9619 1.06836ZM41.1294 4.88431C42.2394 4.81737 43.0025 4.34874 42.9331 3.74622C42.9331 3.21065 42.4475 2.80897 41.8231 2.94286C41.4069 3.00981 40.5744 2.74202 40.5744 3.54538C40.6438 3.94706 40.505 4.68348 41.1294 4.88431Z" fill="white"/>
<path d="M42.933 95.463C42.5168 95.3961 42.0311 95.3291 41.6149 95.2622C41.1293 95.1283 40.9211 95.3291 40.8518 95.7308C40.7824 96.2664 40.6437 96.8019 40.5743 97.2706C40.4355 97.94 39.8805 98.2748 39.2562 98.1409C38.6318 98.007 38.2849 97.5384 38.4237 96.8689C38.7705 94.8605 39.1868 92.7852 39.603 90.7768C39.8112 89.8395 40.158 89.6387 41.0599 89.7056C41.9618 89.8395 42.8636 89.9734 43.7655 90.1742C45.4305 90.5759 46.1936 91.5801 45.9855 93.0529C45.6386 94.5927 44.598 95.3961 42.933 95.463ZM42.4474 93.6555C43.2105 93.6555 43.6961 93.3207 43.6961 92.7182C43.6961 92.1157 43.0717 91.6471 42.0311 91.714C41.1293 91.781 41.4761 92.5843 41.4068 93.0529C41.268 93.8563 42.1005 93.3877 42.4474 93.6555Z" fill="white"/>
<path d="M77.6895 88.2328C77.4814 87.5634 77.3426 86.9609 77.2039 86.2914C76.9264 85.3541 76.6489 84.3499 76.4408 83.4127C76.3714 83.2118 76.3714 83.011 76.3714 82.8102C76.3714 82.1407 76.7183 81.739 77.2733 81.6051C77.8282 81.5382 78.3139 81.8729 78.4526 82.4754C78.6607 83.2788 78.8689 84.1491 79.0076 85.0194C79.2851 86.2914 79.5626 87.4964 79.8401 88.7684C79.9095 88.9692 79.9095 89.237 79.9095 89.4379C79.9788 89.9734 79.7707 90.509 79.2851 90.7768C78.7301 91.1115 78.1751 91.0446 77.6201 90.7099C75.6776 89.5048 73.7352 88.2998 71.8621 87.0278C71.2377 86.6261 71.0296 85.9567 71.3765 85.4211C71.7927 84.8186 72.4171 84.7516 73.1108 85.2202C74.3595 86.0905 75.6083 86.9609 76.857 87.7642C77.0651 88.032 77.2733 88.2328 77.6895 88.2328Z" fill="white"/>
<path d="M9.91096 75.5129C11.7841 75.1112 13.449 74.7096 15.114 74.3079C15.3221 74.2409 15.5996 74.2409 15.8771 74.2409C16.5015 74.2409 16.8484 74.5757 16.9177 75.1112C17.0565 75.6468 16.779 76.0485 16.224 76.2493C15.7384 76.3832 15.3221 76.4502 14.8365 76.5841C12.9634 76.9188 11.0903 77.2535 9.21722 77.5883C8.52348 77.7222 7.96848 77.6552 7.48286 77.1196C6.99724 76.5171 7.06662 75.9146 7.48286 75.3121C8.7316 73.5045 10.0497 71.697 11.2984 69.8894C11.8534 69.153 12.4778 69.0191 12.9634 69.4208C13.5184 69.8225 13.5878 70.4919 13.1022 71.1614C12.2003 72.3664 11.2291 73.5715 10.3272 74.7765C10.3272 74.9773 10.1885 75.1782 9.91096 75.5129Z" fill="white"/>
<path d="M12.2003 26.7758C11.0209 25.303 9.98033 24.031 8.93972 22.759C8.31535 21.9557 8.24597 21.2862 8.80097 20.8176C9.42533 20.3489 9.98033 20.5498 10.6741 21.4201C11.9228 23.0937 13.1715 24.7674 14.4203 26.4411C14.8365 26.9767 15.0446 27.5792 14.6978 28.2486C14.2815 28.9181 13.6572 29.052 12.9634 28.9181C10.6741 28.5834 8.38472 28.1817 6.16475 27.78C5.40163 27.6461 5.05476 27.0436 5.19351 26.508C5.33226 25.9055 5.88725 25.5708 6.65037 25.7047C8.1766 25.9724 9.70283 26.3072 11.2291 26.6419C11.4372 26.6419 11.7147 26.7089 12.2003 26.7758Z" fill="white"/>
<path d="M76.6489 14.1227C77.7589 13.3863 78.8689 12.6499 79.9788 11.9135C80.3257 11.6457 80.6726 11.4449 81.0195 11.1771C81.7132 10.7085 82.4069 10.7754 82.8232 11.244C83.2394 11.7796 83.1007 12.4491 82.3376 12.9177C80.742 13.9219 79.1463 14.8592 77.5507 15.8634C77.2039 16.0642 76.7876 16.332 76.4408 16.5328C75.8858 16.8006 75.3308 16.8006 74.8452 16.4659C74.2902 16.0642 74.1514 15.5956 74.2902 14.9261C74.7758 12.8508 75.2614 10.7085 75.8164 8.63313C75.8858 8.36534 75.9551 8.09755 76.0939 7.89671C76.3714 7.49503 76.7876 7.36114 77.2039 7.49503C77.6895 7.56198 77.967 7.89671 78.0364 8.36534C78.1057 8.83397 77.967 9.30259 77.8282 9.77122C77.412 11.1771 76.9957 12.583 76.6489 14.0558C76.5795 14.0558 76.6489 14.1227 76.6489 14.1227Z" fill="white"/>
<path d="M97.253 53.0187C95.3105 53.0187 93.8536 51.6798 93.8536 49.8722C93.8536 47.9977 95.3105 46.5249 97.1836 46.5249C99.0567 46.5249 100.583 47.9977 100.583 49.8053C100.652 51.6128 99.1261 53.0187 97.253 53.0187Z" fill="white"/>
<path d="M3.66728 53.0187C1.7248 53.0187 0.267944 51.6128 0.267944 49.7383C0.267944 47.9308 1.79418 46.5249 3.66728 46.5249C5.54038 46.5249 7.06661 47.9977 7.06661 49.8053C6.99724 51.6128 5.54038 53.0187 3.66728 53.0187Z" fill="white"/>
<path d="M25.312 16.5329C25.312 16.9346 25.1038 17.2693 24.6876 17.4032C24.202 17.6041 23.7163 17.5371 23.3001 17.0685C22.6064 16.2651 21.982 15.4618 21.3576 14.5915C20.9414 14.0559 20.5251 13.5203 20.1089 12.9848C19.8314 12.5831 19.5539 12.5161 19.207 12.8509C19.0683 13.0517 18.7908 13.1856 18.5827 13.3195C18.0277 13.7212 17.4033 13.7212 17.0564 13.2526C16.7096 12.7839 16.8483 12.2484 17.4727 11.8467C18.3052 11.2442 19.1377 10.6416 19.9701 9.97217C20.5251 9.57049 21.0108 9.16881 21.5657 8.83408C22.1207 8.4324 22.6064 8.49934 22.9532 8.90102C23.3001 9.36965 23.2307 9.83828 22.6757 10.3069C21.4964 11.3111 21.4964 11.2442 22.4676 12.4492C23.3001 13.4534 24.0632 14.4576 24.8263 15.4618C25.0345 15.7965 25.312 16.0643 25.312 16.5329Z" fill="white"/>
<path d="M20.6639 89.8394C20.2477 89.8394 19.9008 89.6385 19.6927 89.3038C19.4845 88.9021 19.5539 88.5004 19.8314 88.0988C20.8027 86.7598 21.7739 85.4209 22.8145 84.1489C23.2307 83.6133 23.2307 83.3456 22.6064 83.0108C22.3983 82.8769 22.1208 82.743 21.982 82.5422C21.5658 82.1405 21.427 81.7388 21.7739 81.2702C22.1901 80.8016 22.6758 80.8016 23.092 81.1363C23.8551 81.6049 24.5489 82.1405 25.2426 82.6761C25.9363 83.1447 26.6301 83.6803 27.3238 84.1489C27.8788 84.5506 27.9482 85.0862 27.6013 85.5548C27.1851 86.0904 26.6995 86.0234 26.2138 85.6887C26.2138 85.6887 26.1445 85.6887 26.1445 85.6217C24.9651 84.8853 24.9651 84.8853 24.0632 85.9565C23.3001 86.9607 22.4676 88.0318 21.7045 89.036C21.4964 89.4377 21.2189 89.9063 20.6639 89.8394Z" fill="white"/>
</svg>
