<svg width="133" height="94" viewBox="0 0 133 94" fill="none" xmlns="http://www.w3.org/2000/svg">
<path d="M41.3698 61.8399C41.4351 62.5363 41.2391 62.9161 40.3896 62.9794C39.4747 63.0428 38.5599 63.296 37.5797 63.4859C36.7302 63.6125 35.8153 63.7391 35.6193 62.3464C35.4886 63.6758 34.7045 63.9924 33.5936 64.119C29.4768 64.7521 25.4253 65.5118 21.3085 66.2082C21.2432 65.9549 21.2432 65.765 21.1778 65.4485C20.1976 66.5247 19.1521 66.8413 14.3165 67.3477C14.3165 65.5118 13.5323 63.8025 13.2709 61.9665C13.0095 60.0039 12.6175 58.1047 12.2254 56.1421C11.8333 54.1796 11.5066 52.1537 11.1145 50.1911C10.7878 48.2285 10.3957 46.3293 10.069 44.3034C13.2709 43.7336 16.4075 43.1639 19.5442 42.6574C23.0075 42.0876 26.5362 41.5178 29.9995 40.8847C31.1758 40.6315 32.2867 40.5049 33.3975 41.2013C33.7243 41.3912 34.1817 41.4545 34.6391 41.3279C34.247 41.0747 33.855 40.7581 33.2668 40.315C34.6391 40.0617 35.8807 39.8085 37.1876 39.5553C37.1876 39.9351 37.1223 40.1884 37.0569 40.8847C38.2332 38.6056 40.3242 39.3653 41.8925 38.7323C42.0886 39.1754 42.2193 39.492 42.35 39.8718C42.546 38.479 43.7222 38.5423 44.7024 38.3524C48.6232 37.656 52.4786 36.9596 56.334 36.3265C56.9875 36.1999 57.7063 36.3898 58.4251 36.4531V36.3898C58.1637 36.7064 57.9677 37.0229 57.7063 37.2762C58.8825 37.4028 59.34 37.5927 60.3202 38.5423C60.3202 38.5423 60.3855 38.5423 60.4508 38.6056C60.5162 38.6689 60.5815 38.7323 60.7122 38.7956C59.9934 39.1754 59.34 39.5553 58.4251 40.0617C58.2944 41.7711 58.0984 43.8602 57.9023 45.9494C57.5756 45.8861 57.2489 45.8228 56.9222 45.6962C56.9222 45.8228 56.8568 45.9494 56.9222 45.9494C57.9023 46.6458 58.1637 47.5955 57.9023 48.6717C57.5756 50.0645 57.9023 51.5206 57.1835 52.9134C56.7915 53.6731 57.4449 55.0026 57.641 56.1421C58.7518 55.9522 59.9281 55.8256 61.1043 55.5723C61.3657 55.509 61.6271 55.0659 61.6271 54.7493C61.6924 53.9896 61.6271 53.2299 61.6271 52.5335C62.6726 52.2803 63.6528 52.0271 64.9597 51.7738C64.9597 55.0026 68.031 55.8256 70.1221 57.6615C68.227 57.9781 66.528 58.3579 64.8944 58.5478C64.5023 58.6112 64.1102 58.2946 63.8488 58.168C63.1954 58.4845 62.5419 58.9277 61.8885 59.0543C57.1182 59.9406 52.4133 60.7003 47.643 61.5233C46.3361 61.7766 44.9638 61.9032 43.6569 62.2197C42.6113 62.5996 41.8925 62.5363 41.3698 61.8399C41.3698 61.0169 41.3698 60.1306 41.3698 58.9277C43.8529 59.2442 46.5975 57.5349 48.6232 60.3838C48.3618 59.6241 48.0351 58.9277 47.7737 58.168C48.9499 57.9148 50.1915 57.6615 51.4331 57.4083C54.0469 56.7752 55.2885 55.509 55.6152 53.1666C55.942 51.1407 55.0271 49.6846 52.6093 48.4185C53.9162 46.8991 54.243 45.1897 53.2628 43.4804C52.2172 41.6445 50.3875 41.3912 48.4272 41.7078C46.5975 41.961 44.7024 42.2142 42.8727 42.5308C42.546 42.5941 42.2846 42.784 42.0232 42.9106C42.6767 46.4559 43.2648 49.8746 43.9183 53.3565C43.0688 53.2932 42.2846 53.2299 41.5658 53.2299C41.8925 53.6098 42.2193 53.6098 42.546 53.7364C43.0688 53.9263 43.9836 54.1162 44.1143 54.4961C44.5064 55.7623 44.6371 57.1551 44.8985 58.5478C43.9183 58.4212 43.1341 58.3579 42.546 58.2946C42.0232 57.0917 41.5658 55.9522 40.9777 54.686C40.847 55.2558 40.847 55.699 40.5856 55.8889C39.9322 56.4587 37.0569 56.522 36.4688 55.8889C36.0114 55.3824 35.8807 54.6227 35.8153 53.9263C35.8153 53.6731 36.4688 53.2932 36.8609 53.2299C38.1025 52.9134 39.344 52.7868 40.7163 52.5335C40.5203 51.394 40.3242 50.381 40.1282 49.3048C38.3638 49.6213 36.7302 49.8746 34.9658 50.1911C34.8352 49.2415 34.6391 48.3552 34.5084 47.4055C36.4035 47.089 38.1678 46.7724 40.0628 46.3926C39.7361 45.1264 39.4747 44.0502 39.2787 43.1639C35.8807 43.7969 32.8094 44.3667 29.6075 44.9365C29.8688 46.5825 30.1302 48.0386 30.3916 49.4947C29.0194 50.0012 27.7124 50.381 27.3857 52.1537C28.4966 51.4573 29.4768 50.8242 30.2609 50.381C30.457 50.8875 30.7837 51.4573 30.849 52.0271C30.9797 53.1033 30.849 54.2429 31.0451 55.3191C31.3065 56.6486 32.0253 57.9148 32.2213 59.3076C32.4173 60.7636 33.0055 60.827 34.247 60.5737C36.4688 60.1306 38.6906 59.814 40.9777 59.4342C40.847 60.0673 40.7163 60.5737 40.7817 60.9536C40.7817 61.1435 41.1084 61.46 41.3698 61.8399ZM22.7461 45.8861C21.3085 46.1394 19.9362 46.3926 18.4333 46.7091C19.3481 51.5206 20.1976 56.0788 21.0471 60.7003C21.3739 62.5363 21.4392 62.5363 23.3342 62.2197C23.3996 62.2197 23.5303 62.2197 23.5956 62.2831C23.5303 62.5996 23.5303 62.9794 23.4649 63.3593C25.2946 60.8903 28.3659 61.9665 30.653 60.827C30.457 59.8773 30.2609 58.8644 30.0649 57.7248C28.3659 58.0414 26.7322 58.2946 25.0332 58.6112C24.3144 54.3062 23.5303 50.2544 22.7461 45.8861Z" fill="white"/>
<path d="M60.6469 38.8589C60.5815 38.7956 60.5162 38.7323 60.3855 38.669C60.3201 37.4028 59.7974 36.5798 58.3597 36.4532V36.5165C58.7518 36.2633 59.1439 35.8834 59.6013 35.8201C66.9201 34.5539 74.3042 33.3511 81.623 32.0849C81.9497 32.0216 82.3418 32.2115 82.8645 32.2748C82.9299 32.2115 83.1913 31.8317 83.518 31.7683C86.0665 31.2619 88.615 30.882 91.0982 30.4389C91.1635 31.2619 91.2942 31.895 91.3596 32.5914C91.4902 32.5914 91.5556 32.5914 91.6863 32.5914C91.6863 31.895 91.6863 31.2619 91.6863 30.3122C96.3912 29.5525 101.031 28.8562 105.67 28.1598C106.455 28.0331 107.173 27.6533 107.957 27.59C108.676 27.5267 109.395 27.7166 110.245 27.7799C110.245 27.8432 110.245 27.59 110.245 27.2101C111.944 26.8936 113.708 26.577 115.538 26.2605C115.864 28.2231 116.256 30.059 116.583 32.0216C116.191 31.8317 115.864 31.705 115.603 31.5784C115.603 31.705 115.603 31.8317 115.603 31.8317C116.649 32.2748 116.845 33.1611 116.975 34.1108C117.237 35.8201 117.629 37.5294 117.89 39.2388C118.021 40.0618 117.89 40.8848 117.825 41.6445C117.106 41.6445 116.387 41.6445 115.472 41.6445C115.211 41.3279 114.753 40.8848 114.296 40.3783C114.819 42.4675 115.538 42.7207 117.106 41.7711C117.302 41.6445 117.563 41.6445 117.759 41.6445C117.955 41.7711 118.282 41.8344 118.347 42.0243C118.805 44.4301 119.197 46.7725 119.589 48.925C116.91 50.1278 114.035 50.2545 111.29 50.7609C108.48 51.3307 105.67 51.8372 102.795 50.8875C102.795 51.0775 102.795 51.2041 102.73 51.394C103.383 51.5206 104.037 51.5839 104.756 51.7106C104.756 51.7739 104.756 51.8372 104.821 51.9005C102.926 52.217 101.031 52.5969 99.0704 52.9134C99.0704 52.9134 99.005 52.5969 98.9397 52.4069C99.005 51.9005 99.0704 51.394 99.2011 50.6976C99.7892 50.9508 100.247 51.1408 100.704 51.3307C100.835 50.9508 100.965 50.571 101.096 50.1911C100.181 50.3178 99.3971 50.3811 98.613 50.5077C98.7437 51.2674 98.809 51.9005 98.9397 52.4703C96.3259 53.1667 93.712 53.863 90.9021 54.6228C90.9675 53.3566 91.0328 52.4069 91.0328 51.3307C90.5101 52.2803 90.0526 53.1033 89.5952 53.9264C89.6605 53.9264 89.9873 54.053 90.51 54.1796C88.1576 55.1925 86.4586 55.2558 86.0012 54.4961C85.6091 54.8127 85.2824 55.3191 84.8249 55.3825C80.4467 56.2055 76.0032 56.9652 71.625 57.6616C71.429 57.7249 71.1022 57.7249 70.9715 57.5983C69.6646 56.7119 68.3577 55.8256 66.9201 54.8127C68.031 54.6227 69.0112 54.4328 70.2527 54.1796C67.9656 49.0516 65.7439 44.0502 63.6528 39.3021C62.4112 39.1121 61.5617 38.9855 60.6469 38.8589ZM68.8805 38.0359C69.2725 40.315 69.5993 42.4675 69.9914 44.6833C69.3379 44.62 68.8151 44.62 68.227 44.5567C68.227 44.6833 68.227 44.8099 68.1617 44.9365C68.7498 44.9998 69.4032 45.0632 70.0567 45.1265C70.3834 46.9624 70.7755 48.7984 71.1022 50.6343C71.7557 53.9897 71.7557 53.9897 75.219 53.23C75.2844 53.23 75.3497 53.1033 75.4804 53.04C75.4804 52.1537 75.4804 51.2674 75.4804 50.2545C74.9577 50.0012 74.3042 48.1653 74.1735 45.5696C74.5002 45.9495 74.6963 46.0761 74.8923 46.3293C76.0032 48.2286 77.0487 50.0645 78.1596 51.9638C78.3557 52.2803 78.8131 52.5969 79.0745 52.5336C80.316 52.4069 81.5576 52.0904 82.9952 51.8372C82.0804 46.5193 81.1002 41.3279 80.1854 35.9467C78.7477 36.1999 77.5715 36.4532 76.2646 36.6431C76.8527 39.5553 77.4408 42.2143 78.0289 44.9365C76.5913 42.784 75.3497 40.5049 74.0428 38.2891C73.7814 37.846 73.1933 37.2129 72.8666 37.2129C71.5597 37.4661 70.3181 37.7827 68.8805 38.0359ZM102.272 40.315C102.338 40.2517 102.403 40.2517 102.468 40.1884C103.775 42.4675 105.017 44.7466 106.389 47.0257C106.651 47.4056 107.304 47.7854 107.761 47.7854C108.938 47.7221 110.049 47.4056 111.29 47.1523C110.571 43.2905 109.853 39.5553 109.264 35.8201C109.003 34.0475 108.742 32.3381 107.957 31.0086C106.781 31.3885 105.801 31.7683 104.756 32.0849C104.363 33.3511 105.997 35.0604 103.906 36.1366C103.71 35.8834 103.449 35.6935 103.318 35.3769C101.358 32.3381 101.358 32.3381 97.6328 33.0978C97.5021 33.0978 97.3714 33.2244 97.1754 33.2878C98.1555 38.4791 99.0704 43.6704 100.051 48.9883C101.423 48.7351 102.664 48.5451 103.971 48.2919C103.383 45.5696 102.86 42.9107 102.272 40.315ZM85.8705 50.0012C86.0012 49.9379 86.0665 49.8746 86.1972 49.8113C88.615 51.5839 91.1635 51.3307 93.712 50.3178C95.4764 49.5581 96.7833 48.2286 96.5219 46.266C96.1952 43.2905 95.7377 40.2517 95.0189 37.3395C94.5615 35.5036 92.9932 34.0475 90.4447 34.1108C87.7655 34.1741 85.0863 34.6172 83.7794 37.4028C83.5834 37.7827 83.5834 38.2891 83.4527 38.7323C82.9952 40.0618 83.8447 41.2646 83.7794 42.5308C83.7794 43.1639 83.8447 43.8603 83.8447 44.4934C83.8447 44.8099 83.7794 45.1265 83.7794 45.3797C83.7794 45.6329 83.714 46.0761 83.714 46.0761C85.021 46.266 84.8249 47.4689 85.0863 48.2286C85.413 49.1149 85.413 50.1911 85.2824 51.1408C85.2824 51.394 84.2368 51.5206 83.3873 51.8372C84.5635 51.9638 85.4784 52.0271 86.4586 52.0904C86.3279 51.3307 86.0665 50.6343 85.8705 50.0012Z" fill="white"/>
<path d="M85.2823 8.34405C86.0665 8.09081 86.5893 7.90089 87.112 7.77427C87.8308 7.58434 88.615 7.52103 89.3338 7.39442C92.1437 7.07787 94.6268 9.29368 95.0843 11.8893C95.1496 12.1426 94.8882 12.4591 94.8229 12.7123C94.7575 12.9023 94.6268 13.2188 94.7575 13.3454C95.7377 14.6116 96.6526 15.9411 97.8288 17.0173C98.7436 17.8403 99.9199 18.3468 101.227 19.1698C100.639 19.8029 100.051 20.5626 99.3317 21.4489C97.9595 19.9295 96.7833 18.6633 95.607 17.2706C95.8684 16.8907 96.1298 16.5109 96.3258 16.131C96.2605 16.0677 96.2605 16.0044 96.1951 15.9411C95.8684 16.1943 95.4763 16.5109 95.0843 16.8274C90.6407 12.7123 85.5437 9.61022 79.7933 7.45773C74.0428 5.36854 68.0963 4.73546 62.0191 4.98869C62.0191 4.73546 61.9538 4.54553 62.0191 4.41891C61.9538 4.2923 62.0844 4.16568 62.2151 4.03906C62.0844 3.97575 61.9538 3.91244 61.8231 3.84914C61.627 4.22899 61.431 4.60884 61.1043 5.17862C55.4845 5.62178 49.8647 7.20449 44.5717 9.92676C44.5063 9.61022 44.441 9.29367 44.3756 8.97713C44.245 9.04044 44.1143 9.10375 44.1143 9.10375C43.9836 10.2433 43.0687 10.6232 42.1539 11.1929C37.0569 14.4217 32.6133 18.4101 29.15 23.3482C29.0193 23.6014 28.8233 23.7913 28.6272 24.1079C28.4312 23.728 28.2352 23.3482 27.9084 22.6518C27.7777 23.2849 27.5817 23.6014 27.7124 23.728C28.4312 24.6144 27.9738 25.2474 27.5163 26.0705C25.6213 29.1726 24.249 32.4646 23.2688 35.9466C23.0728 36.5797 22.55 37.0228 22.0926 37.5926C22.0926 37.5926 22.4193 37.7192 22.7461 37.9092C22.55 38.9854 22.4193 40.0617 22.2233 41.0746C22.158 41.2645 21.8966 41.5178 21.6352 41.5811C20.851 41.771 20.0669 41.8343 19.152 41.7077C19.7402 41.4544 20.3283 41.2645 20.9164 41.0113C20.9164 40.948 20.9164 40.8847 20.9164 40.758C20.1976 40.8214 19.4788 40.8847 18.5639 41.0113C16.4075 38.1624 16.7996 35.4401 20.0015 33.2243C22.7461 31.3251 23.1382 30.8186 24.3797 27.7165C24.7718 27.8431 25.0985 28.033 25.556 28.2229C23.5956 26.0071 24.1183 23.4115 24.3797 21.0691C24.5758 19.2964 26.2094 18.3468 27.9084 17.8403C28.4965 17.6504 29.2153 17.7137 29.9341 17.7137C30.1302 17.5871 30.3916 17.2706 30.7837 17.1439C33.7242 16.0677 35.4886 14.0418 36.2074 11.0663C36.3381 10.6232 36.4688 10.18 36.5995 9.73683C37.645 6.95126 39.8668 5.8117 43.1994 6.44479C45.5519 6.88795 47.839 6.82464 49.9301 5.55847C50.3875 5.93832 50.9103 6.31817 51.3677 6.69802C51.433 6.63471 51.4984 6.5714 51.6291 6.5081C51.3677 6.06494 51.041 5.62178 50.7796 5.17862C51.8905 3.97575 52.936 2.77289 54.1122 1.63333C55.8112 -0.0126888 57.9676 -0.202615 59.8627 1.06356C63.9795 3.84914 67.9003 3.97575 72.1478 1.3801C72.8666 0.93694 74.3042 -0.202615 75.3497 1.3801C77.5715 0.683706 78.2249 2.58296 79.1398 3.78583C80.5774 5.62178 82.2764 7.07787 84.6289 7.64765C84.9556 7.64765 85.1516 8.21743 85.2823 8.34405Z" fill="white"/>
<path d="M64.8944 88.556C67.7043 88.2395 70.3181 87.9862 72.932 87.6064C78.4211 86.72 83.4527 84.6309 88.1576 81.782C88.5497 81.5287 89.0071 81.5287 89.5952 81.3388C89.6606 80.4525 91.0329 79.5029 92.5358 79.7561C92.3398 79.5029 92.2091 79.3129 91.8824 78.8065C92.7319 78.6799 93.3853 78.6165 94.1041 78.4899C94.0388 78.4266 93.9081 78.1101 93.7121 77.7935C93.8427 77.8568 93.9081 77.9202 94.0388 78.0468C96.6526 74.6914 99.4625 71.4627 101.88 67.9807C104.886 63.4858 106.651 58.4844 107.435 53.2298C107.5 52.8499 107.761 52.3435 108.023 52.2802C108.938 52.0902 109.853 52.0269 110.833 51.9636C110.898 51.9636 111.029 52.3435 111.29 52.7866C110.571 52.5967 110.114 52.4701 109.526 52.3435C109.526 52.7233 109.46 53.1665 109.46 53.5463C112.009 53.1665 113.447 54.9391 112.27 57.4715C111.748 58.6743 110.571 59.7506 109.46 60.6369C107.565 62.093 105.932 63.6124 105.54 66.0181C105.344 67.1577 105.474 68.2972 105.474 69.4368C105.474 69.9433 105.67 70.4497 105.605 70.9562C105.54 71.7792 105.409 72.6022 105.082 73.3619C104.625 74.5648 103.579 73.4885 102.861 73.6785C102.599 73.7418 102.272 73.6785 101.946 73.995C102.338 74.1216 102.664 74.2483 103.057 74.3116C103.449 74.3749 103.775 74.3116 104.233 74.6281C103.71 74.9446 103.253 75.3245 102.73 75.5144C100.704 76.2108 98.6784 76.7806 96.6526 77.4137C96.4566 77.477 96.3912 77.9835 96.1952 78.1101C94.6269 79.5029 93.9081 81.2755 93.3853 83.2381C92.5358 86.2769 90.6408 87.5431 87.1774 87.1632C87.1774 86.4035 87.1774 85.6438 87.1774 84.9474C86.524 85.074 86.3933 85.264 86.72 87.0366C86.1973 87.0366 85.6745 87.0366 85.2171 86.9733C81.8191 86.5934 79.2706 87.9229 77.2448 90.5186C76.7874 91.0883 76.33 91.6581 75.7419 92.1646C74.631 93.1142 73.2587 93.684 71.8211 93.3041C69.0112 92.4178 66.5934 91.025 64.8944 88.556Z" fill="white"/>
<path d="M113.185 58.3578C115.342 55.8255 117.367 53.4198 119.458 51.0774C120.112 50.3177 120.504 49.6213 120.243 48.545C119.328 44.0501 118.544 39.5552 117.759 34.997C117.694 34.6171 117.629 34.3006 117.563 33.7941C120.177 33.351 122.726 32.8445 125.274 32.5279C126.973 32.338 127.757 33.351 127.3 34.9337C127.104 35.6301 126.973 36.3898 126.646 37.0228C125.993 38.5423 126.32 40.5681 123.837 40.948C123.967 41.0746 124.033 41.1379 124.163 41.2645C124.49 41.1379 124.817 40.948 125.209 40.8214C125.274 40.8847 125.34 40.948 125.34 41.0746C125.34 41.1379 125.34 41.2645 125.274 41.3278C123.837 43.8602 124.817 45.8227 126.646 47.7853C128.149 49.4313 129.391 51.2673 130.763 53.0399C130.829 53.1032 130.829 53.2299 130.959 53.3565C130.763 53.6097 130.502 53.8629 130.175 54.3061C130.959 54.496 131.613 54.6859 132.266 54.8759C132.266 54.9392 132.266 55.0658 132.266 55.1291C125.993 56.2687 119.72 57.2816 113.185 58.3578Z" fill="white"/>
<path d="M4.18781 77.0973C4.84127 75.8312 5.42939 74.9448 5.75612 73.9952C5.95216 73.4887 5.75612 72.8556 5.88681 72.3492C6.54027 70.1334 7.19374 67.9809 7.97789 65.7651C8.30462 64.8788 8.17393 64.2457 7.58581 63.5493C5.42939 60.827 3.40366 58.1047 1.24724 55.3825C1.63931 55.3192 1.9007 55.1925 2.22743 55.1292C1.50862 54.8127 0.789814 54.5595 0.136353 54.3062C0.201699 54.1796 0.201699 53.9897 0.267045 53.8631C3.79574 53.2933 7.25908 52.7868 10.9185 52.217C10.9838 53.8631 11.8333 55.3192 11.3105 57.1551C11.3759 57.2184 11.8987 57.5983 11.964 58.0414C12.5521 60.827 13.0095 63.6126 13.467 66.4615C12.9442 66.5881 12.4868 66.7147 12.0294 66.8413C12.0294 66.9046 12.0293 66.9679 12.0947 67.0946C12.5521 67.0313 12.9442 67.0313 13.4016 66.9679C13.9244 69.2471 16.2768 69.437 17.8452 70.5132C19.4135 71.5262 21.0471 72.4125 22.6808 73.2988C22.0927 74.4384 17.6491 75.1348 16.2768 74.375C16.0808 74.6283 15.8848 75.1348 15.6234 75.1348C11.964 75.7045 8.30462 76.3376 4.18781 77.0973ZM9.02343 68.5507C9.08877 68.6773 9.15412 68.8672 9.15412 68.9938C10.0036 68.614 10.8531 68.2974 11.7026 67.8543C11.7026 67.8543 11.5719 67.3478 11.5066 67.3478C10.1997 67.2845 10.265 66.1449 9.74224 65.3852C9.48085 65.0054 9.21947 64.5622 8.95808 64.1824C9.08877 65.132 9.28481 65.955 9.74224 66.6514C10.5264 67.9809 10.5264 68.1075 9.02343 68.5507ZM8.30462 59.4975C8.04324 59.7508 7.8472 60.004 7.58581 60.2572C7.32443 59.6241 7.06304 58.9278 6.93235 58.5479C6.73631 58.7378 6.40958 59.1177 6.1482 59.3076C6.67097 59.6241 7.25908 60.0673 7.78185 60.3839C7.97789 60.1306 8.10858 59.8141 8.30462 59.4975Z" fill="white"/>
<path d="M52.2172 91.7216C53.0667 91.2151 53.7855 90.772 54.5043 90.3288C54.439 90.2655 54.3736 90.1389 54.3736 90.0756C53.9816 90.2022 53.6548 90.3288 53.2628 90.4554C53.1321 90.1389 53.0014 89.8223 52.8707 89.5058C52.8053 89.5058 52.6746 89.5691 52.6093 89.5691C52.6746 89.949 52.8707 90.3288 52.74 90.582C52.6746 90.8986 52.2826 91.0885 51.8905 91.4684C51.3677 90.8353 50.9103 90.2655 50.5182 89.6957C48.5578 87.0368 45.944 85.7073 42.4806 86.0871C41.5005 86.2137 40.4549 86.4037 39.5401 86.2137C38.4945 85.9605 37.253 85.5174 36.5995 84.821C35.8153 83.9979 35.4886 82.7951 35.0312 81.7188C34.7698 81.0224 33.9203 80.0095 35.8153 80.3894C35.75 79.7563 35.75 79.1865 35.6846 78.5534C35.6193 78.5534 35.4886 78.5534 35.4233 78.5534C35.3579 78.9333 35.3579 79.3131 35.2926 80.0095C34.7698 79.693 34.3124 79.503 34.1817 79.1865C32.9401 76.5908 30.7183 75.1347 27.9085 74.5017C23.9223 73.6153 22.6154 70.9564 23.5956 67.2845C23.9223 65.8917 25.2946 66.4615 26.1441 66.1449C26.4055 66.0816 27.059 66.4615 27.255 66.778C27.7778 67.7276 28.0391 68.7406 28.5619 69.6902C28.8233 70.1334 29.4114 70.3866 29.8035 70.7664C32.2213 73.2988 34.6391 75.8311 36.9916 78.3635C37.7757 79.1865 38.6252 79.7563 39.6054 80.326C40.651 80.9591 41.6965 81.7188 42.742 82.3519C49.1459 86.1504 56.2033 88.1763 63.7181 88.3029C65.2211 88.3029 64.8944 89.6957 65.6785 90.3288C62.9993 89.8856 60.7776 90.8353 58.5558 91.9748C56.3994 93.0511 54.2429 93.4309 52.2172 91.7216Z" fill="white"/>
<path d="M40.3243 19.2332C41.5005 21.0691 42.6767 22.9051 43.9183 24.8677C43.5262 25.2475 43.0688 25.5641 42.546 26.0705C41.1738 24.741 38.756 24.6144 38.1025 22.1454C37.9718 22.4619 37.9065 22.6519 37.7758 22.9684C37.449 22.8418 37.1877 22.6519 36.6649 22.3986C38.2332 24.0446 39.6708 25.5641 41.2391 27.1468C40.847 27.4633 40.3243 27.8432 39.9322 28.1597C37.7758 26.1971 35.4887 24.0446 33.2015 21.9555C33.9857 21.2591 34.7698 20.4994 35.6847 19.6764C37.1877 20.626 38.8213 21.6389 40.7163 22.8418C39.5401 21.0058 38.5599 19.4231 37.5144 17.7771C38.2985 17.0807 39.0827 16.321 39.7362 15.7512C41.9579 17.8404 44.245 19.9929 46.5975 22.2087C46.0094 22.6519 45.4866 23.095 44.8985 23.5382C43.4609 22.0188 41.9579 20.4994 40.5203 19.0433C40.3896 19.1066 40.3896 19.1699 40.3243 19.2332Z" fill="white"/>
<path d="M73.128 19.6762C71.4944 20.1827 69.2073 19.5496 68.9459 18.7266C68.4885 18.8532 68.031 19.1697 67.639 19.1064C61.4311 18.5999 55.6153 19.8661 50.3222 22.8416C45.0946 25.8171 41.1084 30.1221 38.6906 35.6299C38.2986 36.5796 38.0372 37.5292 37.5797 38.4155C37.3837 38.7321 36.8609 38.8587 36.0768 39.3018C36.2728 38.4788 36.3382 38.099 36.4689 37.7191C36.7956 36.8328 37.1223 35.9465 37.4491 35.1235C37.8411 34.1739 38.6253 33.5408 38.8867 32.4645C39.2134 31.3883 40.1282 30.3753 40.8471 29.4257C41.5659 28.4761 42.35 27.5264 43.1995 26.7034C45.8134 24.0445 48.8193 21.8287 52.348 20.4359C52.9361 20.1827 53.5895 19.1064 54.5044 20.1193C54.5044 20.1193 54.6351 20.1193 54.7004 20.056C55.0925 18.7899 56.3341 18.9798 57.2489 18.7266C62.3459 17.3971 67.4429 17.3338 72.4746 18.7266C72.736 18.7899 72.932 19.1064 73.128 19.3596C73.128 19.4863 73.128 19.6129 73.128 19.6762Z" fill="white"/>
<path d="M93.5159 54.686C89.9873 68.1075 75.219 77.6671 60.4508 75.198C61.7577 73.7419 63.4567 74.375 64.9597 74.3117C66.2013 74.2484 67.4428 74.5649 68.6191 74.3117C71.429 73.6153 74.3042 72.8556 76.918 71.716C84.2368 68.4873 89.1378 63.1061 91.8823 55.8256C92.1437 54.9393 92.4704 54.4328 93.5159 54.686Z" fill="white"/>
<path d="M54.3084 18.4735C53.5242 15.4347 52.74 12.5225 52.0212 9.61031C52.6094 9.16715 52.8054 9.16715 53.4589 9.80024C55.4846 11.5729 55.5499 14.0419 56.2687 16.321C57.5757 16.0678 57.9677 15.4347 57.5757 14.2318C57.3143 13.4088 57.5103 12.4592 57.1836 11.6362C56.9875 11.0664 56.138 10.3067 55.746 10.37C54.5697 10.5599 54.1777 9.92686 53.5895 9.04054C54.6351 8.85061 55.6153 8.59738 56.5955 8.53407C57.7064 8.47076 58.5559 9.04054 58.8826 10.0535C59.4054 11.5729 59.7974 13.1556 60.1242 14.675C60.3855 15.9412 59.7974 16.9541 58.4905 17.334C57.1182 17.7138 55.8113 18.0304 54.3084 18.4735Z" fill="white"/>
<path d="M71.0369 79.123C71.2983 79.5029 71.5597 79.8194 71.7557 80.136C71.8211 80.1993 71.7557 80.3259 71.7557 80.3892C72.8013 86.0237 70.9062 85.9604 65.6786 86.2136C65.3518 83.1748 65.0251 80.1993 64.6984 76.7806C65.8092 77.0338 66.6587 77.2871 67.5082 77.477C67.5082 77.477 67.4429 77.2238 67.3122 76.7806C68.8152 76.654 70.2528 76.4008 71.1023 77.9202C71.3637 78.3 71.1023 78.8065 71.0369 79.123ZM69.8607 79.8194C69.73 79.6295 69.3379 79.1863 68.9459 78.8698C68.6845 78.6799 68.3577 78.4899 68.031 78.4899C67.835 78.4899 67.4429 78.8065 67.5082 78.9331C67.7043 80.136 67.6389 81.2755 66.7241 82.2885C66.7241 82.2885 66.7894 82.4151 66.9201 82.605C67.1815 82.4151 67.4429 82.2252 67.9003 81.9719C67.9003 82.605 67.835 83.1115 67.9003 83.5546C67.9657 83.9345 68.3577 84.1877 68.6191 84.5043C68.9459 84.1877 69.4033 83.9345 69.5993 83.5546C69.73 83.3014 69.5993 82.8582 69.6647 82.4784C69.5993 81.5921 69.73 80.769 69.8607 79.8194Z" fill="white"/>
<path d="M53.7201 18.6002C52.936 18.98 52.3479 19.2966 51.6944 19.6764C51.3023 19.2332 50.9103 18.7901 50.4528 18.2836C49.9301 18.5369 49.4073 18.8534 48.8192 19.1066C48.9499 19.6764 49.0806 20.2462 49.2113 20.8793C48.5578 21.1958 47.9697 21.5124 47.1855 21.9555C46.5974 19.7397 46.0093 17.6505 45.4212 15.5613C45.3558 15.4347 45.3558 15.3081 45.3558 15.1815C44.7024 12.5858 44.7024 12.5858 47.3162 11.4463C49.3419 13.7254 51.433 16.0678 53.7201 18.6002ZM47.2509 14.1686C47.1855 14.2319 47.0548 14.2952 46.9895 14.3585C47.3162 15.3714 47.7083 16.4477 48.1004 17.6505C48.6231 17.334 49.0152 17.1441 49.4073 16.8908C48.6231 15.8779 47.9043 14.9916 47.2509 14.1686Z" fill="white"/>
<path d="M86.3279 13.2189C84.8249 16.0678 83.3873 18.7268 81.9497 21.3857C79.7933 20.6893 79.7933 20.6893 80.0547 18.4102C80.1853 17.3973 80.316 16.3844 80.3814 15.4347C80.4467 14.675 79.9893 14.5484 79.4012 14.865C78.9438 15.0549 78.4863 15.3081 77.8329 15.3081C78.6824 13.6621 79.5319 12.0161 80.4467 10.4333C83.1259 11.5729 82.7992 11.3197 82.4071 13.5355C82.2111 14.6117 82.1457 15.7513 82.2111 16.8908C82.8645 15.4347 83.5833 13.9786 84.3022 12.3959C85.021 12.6492 85.6091 12.9024 86.3279 13.2189Z" fill="white"/>
<path d="M60.3855 84.3778C58.8826 83.6181 58.0331 83.9346 57.9024 85.6439C57.1182 85.5806 56.3994 85.5173 55.3539 85.3907C56.7262 82.985 56.7262 80.1994 59.2747 78.6167C59.2093 78.5534 59.2093 78.4268 59.2093 78.4268C58.9479 78.5534 58.6212 78.68 58.0984 78.8699C58.4905 77.9203 58.7519 77.2239 59.0786 76.4009C59.9935 76.5275 60.843 76.5908 61.6925 76.7174C61.8885 76.7807 62.0192 77.2239 62.0192 77.5404C62.2806 79.7562 62.4766 81.972 62.6726 84.1878C62.8033 86.0871 62.6073 86.277 60.5162 85.8972C60.4509 85.5173 60.4509 84.9475 60.3855 84.3778ZM60.5162 82.6051C60.2548 81.2123 60.7776 80.0095 59.9281 78.68C59.536 80.1361 59.2747 81.2123 58.9479 82.4152C59.4707 82.4785 59.8628 82.4785 60.5162 82.6051Z" fill="white"/>
<path d="M92.2744 69.9432C91.7516 69.5634 91.2942 69.1202 90.7061 68.6771C90.8368 68.2972 91.0328 67.9174 91.2288 67.5375C91.1635 67.4742 91.0981 67.4109 91.0328 67.4109C90.7714 67.6641 90.4447 67.9174 90.1179 68.1706C89.5952 67.7274 89.0724 67.221 88.4189 66.6512C89.0071 66.208 89.4645 65.8282 90.0526 65.385C92.3397 67.4109 94.6268 69.4368 96.9139 71.4626C95.411 73.4252 95.411 73.4252 93.2546 72.4756C92.209 72.0324 91.0981 71.5259 89.9219 71.2094C91.2288 72.349 92.5357 73.4252 93.908 74.6281C93.3852 75.1978 92.9278 75.641 92.4704 76.1475C91.2942 75.0712 90.0526 74.0583 89.0071 72.982C88.7457 72.7288 88.7457 71.9691 88.9417 71.5259C89.7912 69.3734 89.8566 69.3734 92.2744 69.9432Z" fill="white"/>
<path d="M77.1794 82.4785C78.2903 82.162 79.2705 81.8454 80.3161 81.5289C80.5121 82.0353 80.7081 82.5418 80.9695 83.1749C79.1398 83.808 77.4408 84.3778 75.5458 85.0108C75.2191 83.4914 73.9775 82.162 74.5656 80.326C73.7161 79.8195 72.8666 79.1231 73.5854 77.857C73.1933 77.4138 72.8013 76.9073 72.2131 76.211C74.2389 75.5779 76.0686 74.9448 77.8329 74.375C77.8982 74.5016 77.9636 74.6282 78.0289 74.7549C77.7022 75.0081 77.3755 75.198 76.6567 75.6412C77.4408 75.4512 77.8329 75.3879 78.1596 75.3246C78.225 75.4512 78.2903 75.5779 78.3557 75.7045C77.7022 76.021 77.0487 76.3376 76.3953 76.6541C76.2646 76.5275 76.1992 76.4009 76.0686 76.2743C76.3299 76.1476 76.5913 76.0843 76.9181 75.9577C75.4151 76.0843 75.1537 76.9707 75.7418 78.1735C76.3953 78.4901 76.8527 78.8699 77.1141 78.8066C77.7022 78.6167 78.0943 78.1102 78.6824 77.667C78.8784 78.3001 79.0745 78.8066 79.3359 79.3764C78.421 79.6929 77.6369 79.9462 76.5913 80.326C76.7874 81.0857 76.9834 81.7188 77.1794 82.4785Z" fill="white"/>
<path d="M104.494 26.2603C104.625 26.5769 104.821 26.8934 104.952 27.21C103.645 27.9697 102.991 27.4632 102.338 26.2603C101.619 24.8042 100.573 23.4748 99.5931 21.8287C100.312 22.0187 100.9 22.2086 101.488 22.3352C101.554 22.2719 101.554 22.2086 101.619 22.1453C101.161 21.8921 100.769 21.6388 100.312 21.3856C101.292 20.7525 102.142 20.1194 103.187 19.4863C105.082 20.1194 106.52 21.4489 106.651 23.6647C106.716 24.8676 106.716 26.197 105.801 27.3366C105.344 26.8301 105.082 26.4503 104.755 26.0071C104.625 26.1337 104.559 26.197 104.494 26.2603Z" fill="white"/>
<path d="M53.0667 78.3001C51.3024 79.5663 50.3875 81.4655 48.8845 83.0482C48.3618 82.795 47.7737 82.5418 47.1855 82.3518C48.8192 81.7821 49.538 80.8324 49.9301 79.3763C50.1915 78.49 50.9756 77.7303 51.5637 76.9706C51.6291 76.844 52.0212 76.9073 51.9558 76.9073C52.3479 76.1476 52.6746 75.5145 53.0667 74.8181C54.1776 75.3246 55.1578 75.7677 56.2033 76.2742C54.8964 79.1231 53.5895 81.8454 52.2825 84.6943C51.5637 84.3777 50.9756 84.1245 50.2568 83.8079C51.3024 81.8454 52.1519 80.0727 53.0667 78.3001Z" fill="white"/>
<path d="M61.8884 16.7641C61.8884 13.662 61.8884 10.6865 61.8884 7.64771C62.7379 7.64771 63.5874 7.64771 64.5676 7.64771C63.9795 8.40741 63.5221 9.04049 63.0647 9.67358C64.2409 10.6232 65.3518 11.7628 67.1161 10.9398C67.1161 11.6995 67.1161 12.1426 67.1161 12.7757C66.2013 12.839 65.2864 12.839 64.3062 12.9023C64.3062 13.5987 64.3062 14.2318 64.3062 14.9915C65.3518 14.9915 66.332 14.9915 67.3775 14.9915C67.3775 15.6246 67.3775 16.1311 67.3775 16.7641C65.6785 16.7641 63.8488 16.7641 61.8884 16.7641Z" fill="white"/>
<path d="M51.1716 73.9317C50.4528 74.2482 50.1261 74.3748 49.9954 74.4382C50.1914 74.818 50.5182 75.1979 50.4528 75.4511C49.9301 77.5403 50.1914 79.946 47.5123 81.5287C47.9043 79.5661 48.2311 77.9201 48.5578 76.2741C48.4924 76.2741 48.4271 76.2108 48.2964 76.2108C47.5122 78.0467 46.6628 79.8827 45.8133 81.8453C45.0944 81.5287 44.5063 81.2755 43.9182 81.0222C44.3756 79.946 44.7024 78.9964 45.1598 78.0467C45.6172 77.0971 46.336 76.2108 46.7934 75.2612C47.1855 74.4382 47.3816 73.4885 47.7083 72.4756C48.7538 72.8554 49.7994 73.2986 51.1716 73.9317Z" fill="white"/>
<path d="M74.631 18.347C73.7815 18.0937 73.0627 17.8405 72.3439 17.6506C73.2587 14.6751 74.1082 11.7629 75.0231 8.78735C75.7419 8.97728 76.3953 9.1039 77.3102 9.35713C76.4607 12.3326 75.5458 15.3081 74.631 18.347Z" fill="white"/>
<path d="M22.8114 72.4758C20.3936 71.1463 17.8451 69.6269 14.9045 67.9808C17.7144 67.4744 20.1976 67.0945 22.4847 66.6514C22.6154 68.6772 22.6807 70.5765 22.8114 72.4758Z" fill="white"/>
<path d="M82.2111 71.906C82.9299 71.3995 83.4526 71.0197 84.2368 70.5132C86.0665 73.0455 87.8308 75.5779 89.6605 78.1735C89.0071 78.6167 88.4843 78.9965 87.8962 79.503C86.0011 76.9707 84.1714 74.5016 82.2111 71.906Z" fill="white"/>
<path d="M112.924 53.5465C114.1 53.5465 114.884 53.5465 115.864 53.5465C114.492 52.4703 112.336 53.4832 111.552 51.4573C114.035 51.0142 116.452 50.6343 118.805 50.1912C118.87 50.2545 118.936 50.3811 119.001 50.4444C117.106 52.6602 115.276 54.876 113.185 57.2817C113.12 55.8889 113.054 54.6228 112.924 53.5465Z" fill="white"/>
<path d="M69.6647 64.562C70.2528 65.385 70.8409 66.208 71.4943 67.0944C70.2528 67.3476 69.1419 68.044 69.2072 70.1965C68.2924 68.5505 67.3122 67.6641 65.5479 68.1073C66.528 66.9044 66.9855 65.7649 66.0706 64.562C67.4429 64.562 68.6845 64.562 69.6647 64.562Z" fill="white"/>
<path d="M59.6014 29.5524C59.9281 28.856 60.3202 28.1596 60.5816 27.6531C59.7974 27.3999 58.8826 27.0833 58.2291 26.8934C59.2093 25.8805 60.1242 25.0575 61.039 24.1711C61.5618 25.1841 62.6073 25.8172 64.3063 25.5006C63.0647 26.6402 63.0647 27.843 63.9796 29.4891C62.3459 28.6661 61.039 28.7294 59.9935 29.9322C59.7974 29.8056 59.7321 29.679 59.6014 29.5524Z" fill="white"/>
<path d="M52.5439 72.8555C47.7736 71.3994 44.5717 67.9807 41.6311 64.1189C42.3499 64.4987 43.1994 64.752 43.7222 65.3218C46.14 67.7908 48.8192 69.7534 51.8904 71.3361C52.2825 71.526 52.5439 72.0958 52.8706 72.4756C52.8053 72.6022 52.6746 72.7289 52.5439 72.8555Z" fill="white"/>
<path d="M73.1281 19.6764C73.1281 19.5498 73.1281 19.4865 73.1281 19.3599C73.5855 19.4232 73.9776 19.4232 74.435 19.4865C74.8924 19.5498 75.4805 19.5498 75.8726 19.7397C78.5518 21.1958 81.1656 22.7152 83.7795 24.2979C84.1062 24.4879 83.9755 25.3742 84.0409 25.8806L84.1062 25.8173C82.93 25.0576 81.8191 24.1713 80.5122 23.5382C78.3557 22.3987 76.134 21.449 73.9122 20.3728C73.6508 20.3095 73.3894 19.9296 73.1281 19.6764Z" fill="white"/>
<path d="M72.4092 6.63476C75.1537 6.38152 77.5715 7.52108 80.0547 8.4074C85.2824 10.2433 89.8566 13.1555 93.9081 16.7641C94.0388 16.8274 94.1041 16.9541 94.1694 17.0807C94.1694 17.144 94.1694 17.2706 94.1041 17.4605C93.7774 17.2073 93.4506 17.0174 93.2546 16.8274C87.3734 11.7628 80.6428 8.34409 72.8666 6.88799C72.7359 6.88799 72.6052 6.69807 72.4092 6.63476Z" fill="white"/>
<path d="M60.7122 68.6139C60.1241 68.1074 59.4706 67.411 58.9479 66.9045C59.2746 66.2714 59.732 65.4484 60.1241 64.6887C60.8429 64.8153 61.7578 65.0053 62.6726 65.1952C62.8033 65.8916 62.934 66.8412 63.0647 67.6642C62.3459 67.9175 61.4964 68.2973 60.7122 68.6139Z" fill="white"/>
<path d="M56.2687 30.3755C55.6152 30.7554 54.7657 31.2618 54.1776 31.5784C53.5895 31.0086 52.8707 30.3755 52.2826 29.869C52.6093 29.236 53.0014 28.4129 53.3281 27.7166C54.1123 27.7799 55.0271 27.8432 55.8766 27.9698C55.942 28.6029 56.138 29.4892 56.2687 30.3755Z" fill="white"/>
<path d="M48.4271 25.1209C51.1063 22.7784 54.3083 21.3857 57.7063 20.6893C60.6469 20.1195 63.7181 19.9929 66.7894 19.7396C67.4429 19.6763 68.0963 19.9929 68.7498 20.2461C65.2864 19.9296 61.9538 20.1195 58.6211 20.8792C55.4845 21.5756 52.5439 22.8418 49.7994 24.5511C49.342 24.8676 48.8192 24.9309 48.4271 25.1209Z" fill="white"/>
<path d="M69.0112 24.9941C69.6647 25.6272 70.3181 26.197 70.8409 26.7035C70.4488 27.3366 69.9914 28.1596 69.534 28.9193C68.8805 28.7927 67.9657 28.6027 67.1162 28.4128C66.9855 27.7164 66.8548 26.7668 66.7894 26.0071C67.4429 25.6905 68.3577 25.3107 69.0112 24.9941Z" fill="white"/>
<path d="M75.6764 62.1565C76.1992 62.5997 76.918 63.1694 77.7022 63.8658C77.4408 64.0558 77.0487 64.4356 76.5913 64.8155C76.1992 64.5622 75.7418 64.309 75.3497 64.0558C75.2844 64.1191 75.2844 64.1191 75.219 64.1824C75.7418 64.7521 76.3299 65.3219 76.9834 66.0183C75.8071 65.8917 74.8923 65.7651 74.0428 65.6385C73.9121 65.0054 73.7161 64.0558 73.52 63.2327C74.1081 62.9162 74.8923 62.5363 75.6764 62.1565Z" fill="white"/>
<path d="M45.6826 82.9849C51.4984 85.5805 57.5756 87.0366 63.9795 87.4798C57.4449 87.5431 51.3677 86.0237 45.6826 82.9849Z" fill="white"/>
<path d="M85.2823 69.69C86.0012 69.1202 86.5893 68.6137 87.3081 68.0439C87.9615 68.2972 88.7457 68.677 89.7912 69.1202C89.0724 70.0698 88.419 70.9561 87.7655 71.9058C86.8507 71.0828 86.1318 70.4497 85.2823 69.69Z" fill="white"/>
<path d="M53.0668 72.0325C55.5499 72.7289 57.9024 73.4253 60.2548 74.1217C58.2291 75.4511 53.5895 74.2483 53.0668 72.0325Z" fill="white"/>
<path d="M23.0729 41.328C23.5956 36.01 25.2946 31.0087 28.3006 26.4504C25.8174 31.1353 24.1184 36.0733 23.0729 41.328Z" fill="white"/>
<path d="M76.2646 18.7266C76.3953 16.3208 78.6825 16.1309 80.2508 14.8647C79.4666 16.6374 78.7478 18.0935 78.029 19.6129C77.3102 19.2963 76.7221 18.9798 76.2646 18.7266Z" fill="white"/>
<path d="M63.7835 49.0515C62.9994 49.1782 62.3459 49.2415 61.5618 49.3681C61.5618 47.4055 61.5618 45.5063 61.5618 43.607C61.6271 43.607 61.6925 43.607 61.7578 43.5437C62.4766 45.3797 63.1301 47.2156 63.7835 49.0515Z" fill="white"/>
<path d="M84.0408 25.9439C84.3022 25.6906 84.6289 25.5007 85.021 25.1208C85.021 25.5007 85.0863 25.7539 85.0863 25.6906C85.8051 26.3237 86.3932 26.8935 86.9813 27.4C87.7655 28.1597 88.4843 28.9194 89.3338 29.7424C87.8962 30.2488 85.413 28.223 84.0408 25.9439Z" fill="white"/>
<path d="M98.1555 71.0829C100.835 68.234 102.468 64.8153 103.971 61.3334C104.167 60.8269 104.363 60.3204 104.625 59.8139C104.625 59.7506 104.755 59.7506 105.017 59.624C104.952 60.0039 104.952 60.2571 104.821 60.5103C103.056 63.8024 101.292 67.1577 99.4624 70.4498C99.2011 70.7663 98.5476 70.8296 98.1555 71.0829Z" fill="white"/>
<path d="M84.7597 64.6887C84.6943 65.0686 84.7596 65.575 84.5636 65.765C82.2765 67.9808 79.728 69.8167 76.7221 71.0196C76.1993 71.2095 75.6765 71.5894 75.2191 71.9059C75.5458 71.526 75.8072 71.0196 76.2647 70.7663C79.2052 69.4369 81.9498 67.6642 84.2369 65.3851C84.3676 65.2585 84.5636 65.0053 84.7597 64.6887Z" fill="white"/>
<path d="M64.0449 73.4886C62.6072 74.185 54.635 72.4124 53.1974 70.9563C56.7261 71.8426 60.5162 72.7289 64.0449 73.4886Z" fill="white"/>
<path d="M82.9299 26.5137C80.7081 25.2475 78.5517 23.8547 76.3299 22.6519C74.8923 21.8921 73.324 21.5123 71.821 20.9425C71.8864 20.8159 71.8864 20.6893 71.9517 20.626C73.0626 20.9425 74.2389 21.1324 75.219 21.7022C77.6369 22.9684 79.9893 24.3612 82.3418 25.754C82.6032 25.8806 82.6685 26.2604 82.9299 26.5137Z" fill="white"/>
<path d="M37.6451 15.5613C35.0966 18.3469 32.5481 21.1324 30.0649 23.8547C30.1956 22.4619 34.9659 17.0807 37.6451 15.5613Z" fill="white"/>
<path d="M75.6765 86.0869C72.0171 87.2898 68.2924 87.7329 64.5023 87.4797C68.2924 87.0365 71.9518 86.5301 75.6765 86.0869Z" fill="white"/>
<path d="M48.3618 25.0576C48.2965 25.3109 48.2311 25.5641 48.1004 25.754C45.8133 28.0331 43.5262 30.3122 41.1084 32.718C43.0688 29.6158 45.2906 26.9569 48.3618 25.0576Z" fill="white"/>
<path d="M84.7596 64.7521C87.0468 62.7262 88.5497 60.1305 89.8566 57.4716C90.0527 57.0284 90.2487 56.6486 90.7715 56.332C90.7061 56.5853 90.7061 56.9018 90.5754 57.155C89.0725 59.5608 87.5695 61.9665 86.0012 64.3089C85.8052 64.5621 85.1517 64.5621 84.7596 64.7521Z" fill="white"/>
<path d="M41.5005 13.1555C41.5658 12.8389 41.6312 12.3958 41.8272 12.2692C44.7024 10.8764 47.643 9.48357 50.5836 8.09079C50.7143 8.02748 50.845 8.15409 50.845 8.09079C47.7737 9.80012 44.6371 11.4461 41.5005 13.1555Z" fill="white"/>
<path d="M73.0626 29.4258C73.128 28.856 73.128 28.3495 73.1933 27.8431C73.7161 27.7798 74.3695 27.6532 74.9577 27.5898C75.219 28.033 75.4804 28.5395 75.7418 29.0459C75.6111 28.856 75.4804 28.6661 75.3497 28.5395C74.8923 28.9826 74.5002 29.4258 74.0428 29.9323C74.2389 30.0589 74.3695 30.2488 74.5656 30.3754C74.0428 30.0589 73.52 29.7423 73.0626 29.4258Z" fill="white"/>
<path d="M79.924 59.0542C79.9893 59.3707 79.9893 59.6873 80.0547 59.9405C80.5121 59.8139 80.9042 59.6873 81.427 59.5607C81.2963 60.3204 81.1656 60.9535 81.1002 61.5232C80.5775 61.5865 79.9893 61.7132 79.4012 61.7765C79.1398 61.3333 78.8785 60.7635 78.6171 60.2571C78.9438 60.0038 79.4012 59.5607 79.924 59.0542Z" fill="white"/>
<path d="M52.4786 7.26785C55.5499 6.69807 58.6212 6.1916 61.6924 5.62183C61.6924 5.74844 61.7578 5.93837 61.7578 6.06499C58.6865 6.63476 55.5499 7.20454 52.4786 7.71101C52.544 7.58439 52.4786 7.45778 52.4786 7.26785Z" fill="white"/>
<path d="M72.4745 6.63461C69.2072 6.44469 65.8745 6.19145 62.5419 6.00153C62.6726 5.87491 62.7379 5.74829 62.8686 5.74829C65.8092 5.93822 68.7498 6.06483 71.6903 6.31807C71.9517 6.31807 72.1478 6.50799 72.4745 6.63461Z" fill="white"/>
<path d="M54.8964 63.1694C55.7459 63.6126 56.2687 63.8658 56.7915 64.1191C56.7261 64.6255 56.5954 65.1953 56.5301 65.7651C56.0073 65.8284 55.4192 65.955 54.5697 66.0816C54.7004 65.132 54.8311 64.1824 54.8964 63.1694Z" fill="white"/>
<path d="M64.241 9.10387C64.7637 7.33123 66.0053 7.33123 67.5083 7.58447C67.5083 8.02763 67.4429 8.5341 67.4429 9.10387C66.332 9.10387 65.3519 9.10387 64.241 9.10387Z" fill="white"/>
<path d="M35.946 76.7808C33.9203 74.5016 31.8292 72.2225 29.8035 70.0067C29.9342 69.8801 30.0649 69.7535 30.1955 69.6902C32.2213 71.9693 34.247 74.2484 36.2727 76.5275C36.0767 76.5908 36.0113 76.7174 35.946 76.7808Z" fill="white"/>
<path d="M49.8648 34.4905C48.2965 32.9078 48.2965 32.9078 50.3222 31.6416C50.6489 32.2114 50.9756 32.7178 51.237 33.2243C50.8449 33.6042 50.3875 33.984 49.8648 34.4905Z" fill="white"/>
<path d="M44.9638 65.0686C46.9895 66.6513 49.0153 68.234 51.041 69.7534C50.9103 69.8801 50.845 70.0067 50.7143 70.1333C48.6885 68.5506 46.6628 67.0312 44.6371 65.4485C44.7678 65.3218 44.8331 65.1952 44.9638 65.0686Z" fill="white"/>
<path d="M98.1556 71.0828C98.2209 71.336 98.417 71.7792 98.2863 71.9058C96.718 73.6784 95.1497 75.3877 93.5814 77.0971C93.4507 77.0338 93.3853 76.9072 93.2546 76.8438C94.8883 74.9446 96.5219 72.982 98.1556 71.0828Z" fill="white"/>
<path d="M106.977 52.4069C106.455 54.686 105.866 56.9651 105.344 59.3075C105.213 59.2442 105.017 59.2442 104.886 59.1809C105.409 56.9018 105.997 54.5594 106.52 52.2803C106.651 52.3436 106.781 52.4069 106.977 52.4069Z" fill="white"/>
<path d="M44.049 82.4784C42.0886 81.2122 40.1282 79.9461 38.1678 78.6799C38.2332 78.5533 38.3639 78.4267 38.4292 78.3C40.3896 79.5662 42.35 80.8324 44.3104 82.1619C44.245 82.2252 44.1797 82.3518 44.049 82.4784Z" fill="white"/>
<path d="M102.142 27.9063C100.965 26.0704 99.7238 24.2344 98.5476 22.3985C98.6783 22.3352 98.809 22.2719 98.9397 22.1453C100.181 23.9812 101.357 25.8172 102.599 27.6531C102.403 27.7164 102.272 27.7797 102.142 27.9063Z" fill="white"/>
<path d="M85.2171 82.795C83.3221 83.618 81.427 84.441 79.532 85.264C79.4666 85.1374 79.4013 85.0108 79.3359 84.8208C81.231 83.9978 83.126 83.1748 84.9557 82.3518C85.0864 82.4784 85.1517 82.6683 85.2171 82.795Z" fill="white"/>
<path d="M75.1537 71.9693C73.3241 72.4124 71.429 72.8556 69.5993 73.2988C69.1419 73.4254 68.6845 73.3621 68.2271 73.1721C70.0567 72.729 71.8864 72.2225 73.7815 71.7793C74.1735 71.716 74.631 71.906 75.1537 71.9693Z" fill="white"/>
<path d="M90.9021 79.1865C89.2031 80.2627 87.5041 81.4023 85.7398 82.4785C85.6744 82.3519 85.5437 82.2253 85.4784 82.0987C87.1774 81.0224 88.8764 79.8829 90.6407 78.8066C90.7061 78.9333 90.7714 79.0599 90.9021 79.1865Z" fill="white"/>
<path d="M29.5422 69.3736C28.8234 68.234 28.1045 67.0945 27.3857 65.9549C27.5164 65.8916 27.6471 65.8283 27.7778 65.7017C28.4966 66.8412 29.2154 67.9175 29.9342 69.057C29.8035 69.1836 29.6729 69.2469 29.5422 69.3736Z" fill="white"/>
<path d="M82.8646 26.577C84.5636 26.9568 85.1517 28.5395 86.328 29.4892C86.1973 29.6158 86.0666 29.7424 86.0012 29.869C84.9557 28.7295 83.9102 27.5899 82.8646 26.577Z" fill="white"/>
<path d="M95.7378 18.5369C96.5873 19.4865 97.4368 20.4994 98.2863 21.4491C98.1556 21.5757 98.0249 21.639 97.8942 21.7656C97.0447 20.816 96.1952 19.803 95.3457 18.8534C95.5417 18.7901 95.6724 18.6635 95.7378 18.5369Z" fill="white"/>
<path d="M41.5005 13.1554C40.3896 13.9151 39.2133 14.6748 38.0371 15.4345C38.4945 14.2317 40.2589 13.0288 41.5005 13.1554Z" fill="white"/>
<path d="M48.5578 54.876C48.2964 53.5465 48.1004 52.217 47.839 50.8242C49.2113 51.0775 50.8449 50.3178 51.041 52.4069C51.1716 53.863 50.7142 54.3695 48.5578 54.876Z" fill="white"/>
<path d="M46.7281 44.6832C48.4925 44.3667 49.342 44.6832 49.538 45.7595C49.7994 46.9623 49.2113 47.5954 47.3816 48.0386C47.1202 46.899 46.9242 45.7594 46.7281 44.6832Z" fill="white"/>
<path d="M106.324 40.5681C105.736 39.4918 105.082 38.4789 104.494 37.3394C104.363 37.0861 104.56 36.7063 104.625 36.3264C104.952 36.5163 105.474 36.643 105.54 36.8962C105.932 38.0357 106.193 39.2386 106.455 40.4415C106.389 40.5048 106.389 40.5681 106.324 40.5681Z" fill="white"/>
<path d="M92.209 44.62C92.209 44.9998 92.209 45.443 92.209 45.8229C92.1437 45.7595 92.013 45.6962 91.9476 45.6329C91.4902 46.2027 90.9674 46.8358 90.314 47.6588C90.1179 47.4689 89.4645 47.2156 89.3338 46.7725C88.7457 44.1768 88.2229 41.5812 87.8308 38.9222C87.7001 38.0992 88.1576 37.4028 89.1378 37.2762C90.314 37.0863 90.7714 37.7194 90.9674 38.9222C90.1179 38.9222 89.2685 38.9222 88.419 38.9222C88.419 38.9855 88.419 39.0488 88.419 39.1754C88.615 39.2388 88.7457 39.2388 88.9417 39.3021C90.0526 39.3654 91.4902 38.7956 91.3595 40.7582C91.2942 41.8344 92.4051 42.784 91.4902 43.9236C91.4249 44.0502 91.6863 44.4301 91.817 44.62C92.013 44.6833 92.1437 44.6833 92.209 44.62Z" fill="white"/>
</svg>
