<svg width="113" height="105" viewBox="0 0 113 105" fill="none" xmlns="http://www.w3.org/2000/svg">
<path d="M108.115 74.8687C104.125 77.6709 99.9601 77.441 95.8872 74.9598C91.4473 79.3669 87.0817 83.7003 82.6723 88.0771C85.338 92.532 85.4167 97.0085 81.8639 101.095C79.0234 104.361 75.2477 105.428 71.0874 104.179C65.9264 102.63 63.5666 98.8564 63.3918 93.5991C57.9948 93.4039 54.206 90.9747 52.6328 85.7608C51.4092 81.7006 53.0043 77.3195 56.391 74.7472C59.3495 72.5003 64.0561 71.3898 69.1122 74.5911C70.1828 73.498 71.2797 72.3615 72.394 71.238C73.3117 70.3097 74.2294 69.3814 75.1734 68.4879C75.9643 67.7374 76.9432 67.7157 77.6031 68.3751C78.2761 69.0474 78.2673 69.9887 77.4807 70.7782C75.134 73.1423 72.7742 75.4933 70.3882 77.8227C69.4792 78.7076 68.7669 78.6295 67.6307 77.6665C63.6759 74.3135 57.6977 75.797 55.9846 80.6075C55.0669 83.1798 55.469 85.6176 57.2694 87.7041C59.0611 89.7775 61.3641 90.6147 64.1085 90.1289C64.3619 90.0855 64.6067 90.0248 64.8558 89.9727C66.4552 89.6127 67.3991 90.554 67.0277 92.1459C66.2192 95.6291 67.4341 98.6786 70.3008 100.366C73.3292 102.149 77.2448 101.524 79.5084 98.8868C81.8114 96.2104 81.8682 92.3498 79.6439 89.6257C78.2936 87.9643 78.311 87.6 79.8231 86.0991C84.5558 81.4013 89.2841 76.7079 94.0169 72.0101C95.3585 70.6828 95.8567 70.6654 97.3293 71.8843C99.9863 74.0835 103.644 74.179 106.397 72.1229C109.085 70.1188 110.02 66.5576 108.67 63.4908C107.297 60.3763 104.042 58.6802 100.642 59.3092C100.463 59.3395 100.283 59.3699 100.109 59.4133C98.282 59.8384 97.5173 58.9622 97.7882 57.0969C97.9761 55.813 98.0154 54.4119 97.7095 53.1669C97.0191 50.3908 94.4888 48.3911 91.6877 48.0918C88.6636 47.7664 85.81 49.2413 84.4072 51.8569C83.0263 54.4249 83.3234 57.522 85.1589 59.7863C86.5441 61.4911 86.5267 61.8164 84.9447 63.3867C84.3242 64.0026 83.7255 64.6316 83.0831 65.2172C82.2572 65.9676 81.3351 65.9633 80.6621 65.2519C80.0547 64.6012 80.0722 63.6643 80.7888 62.9225C81.2608 62.4324 81.8245 62.0246 82.3183 61.6038C79.5084 57.0058 79.4429 52.6551 82.7422 48.5559C85.4473 45.1942 89.9702 43.9883 94.0824 45.2983C98.4918 46.6994 100.983 50.2476 101.424 55.8086C107.079 56.0776 111.064 58.6585 112.31 64.3496C113.254 68.6614 111.733 72.3224 108.115 74.8687Z" fill="white"/>
<path d="M51.6888 70.4529C50.5002 74.0662 47.3101 76.4477 43.3509 76.6819C43.1761 76.6906 43.0013 76.7209 42.7915 76.7426C42.4812 81.2626 40.3967 84.5028 35.9218 85.7261C32.2292 86.7368 28.9429 85.7001 26.5263 82.7331C23.7382 79.3106 23.7819 75.5975 25.9276 71.9147C22.2918 68.3187 18.6952 64.7574 15.0856 61.1788C11.4148 63.2436 7.70027 63.3433 4.27418 60.6279C1.24139 58.2291 0.131409 54.9541 1.18895 51.2323C2.43004 46.8556 5.61141 44.7344 10.1824 44.4611C10.5102 39.7807 12.7608 36.4927 17.4585 35.3952C21.1337 34.5364 24.3457 35.7119 26.6399 38.7179C29.2313 42.1101 29.1396 45.7234 26.972 49.4322C28.5321 50.9764 30.0966 52.525 31.6611 54.0779C31.9408 54.3555 32.2467 54.6201 32.487 54.9368C33.0464 55.6785 33.0114 56.4463 32.3515 57.0883C31.696 57.7259 30.8657 57.8127 30.1971 57.1664C27.9291 54.9802 25.6829 52.7679 23.4891 50.5036C22.7156 49.7011 23.1046 48.8769 23.7645 48.1005C26.0456 45.4154 25.7091 41.7587 23.0347 39.6506C21.1381 38.1584 18.468 37.9892 16.3879 39.2341C14.334 40.4661 13.2458 42.8215 13.6522 45.1552C13.6872 45.3677 13.7265 45.5803 13.7702 45.7928C14.1286 47.4759 13.2371 48.287 11.5109 48.0181C10.5277 47.8619 9.46139 47.7882 8.50436 47.992C6.15766 48.4952 4.41402 50.4993 4.16056 52.859C3.90273 55.3055 4.85103 57.2488 6.95737 58.5588C8.93262 59.7907 11.5109 59.6519 13.425 58.2768C13.5998 58.151 13.7702 58.0122 13.9363 57.8778C15.055 56.9668 15.7105 56.9885 16.7681 58.0252C18.9094 60.1334 21.0376 62.2589 23.1701 64.3757C25.1235 66.319 27.0857 68.2537 29.0303 70.197C30.1753 71.3421 30.1884 71.9321 29.157 73.1683C27.4746 75.1767 27.2255 77.749 28.4972 79.9179C29.7645 82.078 32.2161 83.1712 34.7463 82.7027C37.0974 82.2733 38.9896 80.3256 39.3436 77.814C39.4528 77.0159 39.3217 76.1614 39.1819 75.3545C38.9109 73.7669 39.7106 72.9861 41.3363 73.1813C42.3982 73.3071 43.53 73.4112 44.5526 73.1857C46.8731 72.6738 48.5861 70.6654 48.8177 68.3838C49.0668 65.8896 48.1098 63.9289 45.951 62.6189C43.9496 61.4 41.3931 61.5779 39.4921 62.9876C39.1425 63.2436 38.841 63.5906 38.4608 63.7771C37.6349 64.1805 36.9269 63.9333 36.302 63.2869C35.5766 62.5322 34.6108 61.8728 35.1614 60.6279C35.5373 59.769 36.2889 59.6172 37.176 59.769C37.6174 59.8384 38.1637 59.8861 38.5307 59.6909C41.9525 57.9038 45.9335 58.2551 48.8483 60.6626C51.7325 63.0484 52.8513 66.9133 51.6888 70.4529Z" fill="white"/>
<path d="M57.0945 51.51C43.5169 50.7205 32.8278 39.3773 32.841 25.7741C32.8541 20.5775 34.3268 15.8277 37.2372 11.5159C37.4601 11.1863 37.6742 10.8349 37.9539 10.5616C38.5788 9.9587 39.3217 9.8676 40.034 10.3621C40.7419 10.8523 40.9648 11.5506 40.5759 12.3575C40.4229 12.6785 40.2001 12.9691 39.9947 13.2684C30.5292 27.0841 39.2343 46.0921 55.9496 48.1092C69.4748 49.7402 81.488 39.2645 81.2957 25.7785C81.169 16.9772 77.1048 10.2146 69.265 6.08509C61.4689 1.98158 53.6684 2.5238 46.187 7.1782C44.6881 8.11082 43.7878 8.15419 43.1673 7.19555C42.5686 6.26728 42.9313 5.42575 44.3341 4.4888C60.4944 -6.2905 82.6373 4.12877 84.4596 23.3667C85.9541 39.1517 73.0364 52.4382 57.0945 51.51Z" fill="white"/>
<path d="M58.7421 15.3592C52.8688 15.3505 48.1448 20.031 48.1448 25.8565C48.1448 31.6648 52.8994 36.3843 58.7421 36.3712C64.5192 36.3582 69.2738 31.6518 69.3175 25.9086C69.3612 20.1394 64.576 15.3635 58.7421 15.3592ZM58.6721 33.1136C54.6736 33.0962 51.431 29.8559 51.4267 25.8696C51.4223 21.8224 54.6736 18.5995 58.7552 18.6125C62.745 18.6255 66.0269 21.8788 66.0356 25.8435C66.0487 29.8256 62.7013 33.1353 58.6721 33.1136Z" fill="white"/>
<path d="M60.3633 9.84153C60.3546 10.7221 59.5549 11.4812 58.6634 11.4595C57.7501 11.4378 57.0465 10.6874 57.0814 9.75911C57.112 8.87421 57.8025 8.21487 58.694 8.2062C59.6117 8.20186 60.3721 8.94795 60.3633 9.84153Z" fill="white"/>
<path d="M69.064 12.3532C69.0378 13.2511 68.2599 13.9625 67.3422 13.9278C66.407 13.8888 65.7384 13.1513 65.7908 12.2144C65.8389 11.3555 66.5731 10.6615 67.4296 10.6745C68.3211 10.6832 69.0858 11.4726 69.064 12.3532Z" fill="white"/>
<path d="M93.3219 53.553C93.2476 54.3295 92.8019 54.7806 91.9629 54.8283C91.1894 54.7546 90.7087 54.3469 90.6956 53.5357C90.6868 52.7202 91.1675 52.2777 91.9541 52.2083C92.6795 52.1433 93.3875 52.8373 93.3219 53.553Z" fill="white"/>
<path d="M91.5784 63.4344C91.5259 64.2239 91.0452 64.6446 90.2586 64.7487C89.4939 64.6446 88.9738 64.2716 88.9563 63.4518C88.9432 62.6493 89.3802 62.1808 90.1931 62.1244C90.9622 62.068 91.6308 62.6883 91.5784 63.4344Z" fill="white"/>
<path d="M98.3388 63.3694C98.4087 64.0851 97.7008 64.7531 96.9753 64.7358C96.2674 64.7141 95.7037 64.1198 95.708 63.2826C95.7736 62.6059 96.1844 62.1288 97.0016 62.1201C97.8275 62.1114 98.2645 62.5973 98.3388 63.3694Z" fill="white"/>
</svg>
