<svg width="97" height="105" viewBox="0 0 97 105" fill="none" xmlns="http://www.w3.org/2000/svg">
<path d="M48.3646 5.01249C45.3467 4.69352 42.386 5.00022 39.4948 5.87126C38.6933 6.11253 38.2803 6.03892 37.7814 5.28239C34.8248 0.812725 29.2142 -0.978412 24.2211 0.865887C19.1626 2.73472 16.0383 7.75645 16.7417 13.1053C16.9339 14.5898 17.4819 16.0292 17.8826 17.5505C17.8008 17.575 17.6127 17.6404 17.4205 17.669C10.7958 18.6096 5.81493 22.9975 4.26097 29.5036C3.01372 34.7216 1.97911 39.9928 0.821826 45.2313C0.253405 47.7994 -0.270032 50.3593 0.155261 53.0051C0.658251 56.158 2.09361 58.9306 3.77843 61.5805C7.65922 67.6818 12.5787 72.8998 17.7722 77.8766C18.2629 78.3469 18.4428 78.7476 18.267 79.4551C17.0279 84.5013 15.7848 89.5517 14.6847 94.6307C14.4067 95.9147 14.3821 97.3665 14.6725 98.6423C15.4985 102.302 18.7741 104.719 22.5118 104.674C26.2249 104.633 29.2715 102.11 30.212 98.2743C31.5983 92.5983 32.9437 86.9141 34.3668 81.2462C35.6059 76.3186 35.1151 71.6321 32.8006 67.0971C29.893 61.4047 27.0673 55.6755 24.1843 49.979C23.8653 49.3493 23.8204 48.8176 24.0862 48.1593C24.6996 46.6462 25.2353 45.1045 25.7792 43.571C26.2576 42.2256 25.8282 41.1256 24.6914 40.688C23.5627 40.2545 22.479 40.8107 21.972 42.1275C21.4485 43.4892 20.921 44.851 20.4671 46.2414C20.2463 46.9161 19.9477 47.1942 19.183 47.1901C14.6602 47.1492 10.1374 47.1696 5.61046 47.1656C5.31602 47.1656 5.0175 47.1287 4.65355 47.1042C4.71489 46.7239 4.7476 46.4254 4.80895 46.1309C5.80675 41.4813 6.825 36.8318 7.80235 32.1781C8.28489 29.8962 8.90648 27.688 10.4482 25.8559C12.8486 23.0097 15.9075 21.6153 19.6901 21.6071C19.6288 21.8647 19.596 22.0283 19.5552 22.1919C19.2771 23.2878 19.6697 24.2161 20.6102 24.6659C21.5385 25.1117 22.5445 24.8295 23.2029 23.9094C23.5177 23.4677 23.7917 22.9934 24.0821 22.5354C26.8587 18.127 30.5146 14.6429 35.0783 12.1321C39.0246 9.96061 43.1793 8.61112 47.7594 9.06913C49.4974 9.24088 50.6588 10.5209 50.5688 12.0912C50.4748 13.7228 49.1662 14.8433 47.375 14.8556C46.32 14.8637 45.2527 14.7983 44.2221 14.9619C40.4272 15.5671 37.1107 17.2928 34.2441 19.771C32.5879 21.2022 31.1771 22.932 29.7499 24.6087C29.067 25.4143 29.2347 26.5225 29.9135 27.2218C30.5719 27.8965 31.6392 28.0519 32.4284 27.5039C32.8088 27.2422 33.0991 26.8415 33.3976 26.4775C37.1557 21.9056 41.5681 18.7077 47.8862 18.8999C51.5503 19.0103 54.56 15.792 54.6582 12.0912C54.7522 8.50071 51.9674 5.38871 48.3646 5.01249ZM5.07884 51.2426C9.83885 51.2426 14.5989 51.2549 19.363 51.2263C20.0377 51.2222 20.3771 51.4348 20.6797 52.0442C23.6077 57.9451 26.6011 63.8174 29.5168 69.7265C31.0299 72.7894 31.3693 76.0568 30.5964 79.3692C29.1692 85.4501 27.6603 91.5146 26.1472 97.5791C25.6933 99.4029 24.2456 100.523 22.4831 100.585C20.8433 100.642 19.2403 99.681 18.7782 98.0944C18.5246 97.2274 18.5001 96.1969 18.6964 95.3136C19.9273 89.8829 21.2277 84.4645 22.5649 79.0584C22.888 77.7539 22.6385 76.8175 21.6366 75.8851C16.4963 71.1046 11.6586 66.042 7.74101 60.182C6.18706 57.8592 4.79259 55.4465 4.23235 52.6535C4.15056 52.2323 4.13829 51.7947 4.08922 51.2958C4.4818 51.2753 4.78032 51.2426 5.07884 51.2426ZM28.3105 11.8049C26.3844 13.3466 24.6791 15.1664 22.798 16.937C20.9619 14.9701 20.2626 12.5778 20.966 9.82975C21.7389 6.81999 24.2293 4.68534 27.329 4.27641C30.0893 3.91246 33.0378 5.33146 34.42 7.64604C32.3712 9.02415 30.2284 10.2714 28.3105 11.8049Z" fill="white"/>
<path d="M93.8914 75.0917C92.91 75.3166 92.4888 76.0364 92.2638 76.9728C91.6464 79.5655 88.8411 81.9905 86.1912 82.2726C86.1912 82.1704 86.1707 82.0682 86.1953 81.9782C87.1358 78.8253 86.8536 75.7501 85.774 72.6749C83.758 66.9417 81.8156 61.1838 79.82 55.4424C79.6155 54.8576 79.6686 54.4896 80.1144 54.0193C82.3676 51.6311 83.0342 48.7972 82.2695 45.6239C81.7624 43.5219 80.327 41.9843 78.9939 40.4058C76.6262 37.6087 73.5632 36.2715 69.9196 36.3451C68.701 36.3656 67.785 36.0343 66.9508 35.1306C65.5277 33.593 63.3767 33.4376 61.6714 34.6562C61.0335 35.1101 60.4282 35.6131 59.8353 36.1202C56.6947 38.7865 56.2366 43.068 58.7434 46.3518C59.6513 47.5377 60.6163 48.6827 61.5242 49.8727C61.7082 50.114 61.8963 50.5106 61.8227 50.7642C61.4669 52.0319 61.0253 53.275 60.5918 54.6041C59.8843 54.2892 59.2219 54.0847 58.6575 53.7249C56.1998 52.1546 53.7503 50.5638 51.3335 48.9362C48.4014 46.957 44.7865 47.4109 42.6477 50.0772C40.5049 52.7516 40.8648 56.3788 43.4329 58.7997C48.2256 63.3226 53.828 66.3855 60.1052 68.3034C60.5305 68.4343 61.0212 68.8882 61.1807 69.3053C62.3584 72.4173 63.4462 75.562 64.5994 78.6822C64.8202 79.2751 64.8038 79.725 64.4767 80.2893C62.7305 83.2868 61.8677 86.5296 61.8268 90.0056C61.7859 93.8169 62.89 97.3991 64.0678 100.936C64.9592 103.607 67.9526 105.095 70.6557 104.588C73.6164 104.032 75.6938 101.644 75.747 98.6832C75.7838 96.6426 75.7797 94.602 75.7429 92.5614C75.7347 91.944 75.9187 91.6822 76.5321 91.5105C79.2188 90.758 81.468 89.2981 83.3409 87.2207C83.5903 86.9468 84.0688 86.7546 84.4532 86.7382C88.3381 86.5828 91.5359 85.0043 94.1041 82.1254C95.2532 80.8332 96.0056 79.3079 96.3205 77.6026C96.619 76.0037 95.3922 74.7482 93.8914 75.0917ZM77.2191 51.124C76.3931 51.9624 75.4403 52.7025 74.4588 53.3527C73.4733 54.007 72.3364 54.1093 71.2732 53.4918C70.4717 53.0256 70.0996 52.2036 70.2713 51.3203C70.394 50.6987 70.6925 49.9749 71.1546 49.5783C73.0766 47.9221 75.0927 46.3681 77.121 44.7406C78.908 46.5358 78.9571 49.3656 77.2191 51.124ZM62.706 39.0441C63.1231 38.7006 63.5525 38.3693 64.0473 37.9768C65.7648 40.0173 68.0058 40.4876 70.5412 40.4713C71.7966 40.4631 73.0562 41.052 74.4956 41.4159C71.7312 44.3725 67.9077 45.7588 66.3864 49.4065C64.9756 47.6317 63.5689 45.8733 62.1744 44.1026C60.7349 42.2788 60.923 40.5081 62.706 39.0441ZM75.1826 87.6665C75.1172 87.6869 75.0518 87.7033 74.9863 87.7237C71.6699 88.697 71.6699 88.697 71.6699 92.2016C71.6699 94.2054 71.678 96.2132 71.6699 98.2211C71.6617 99.5706 71.0033 100.425 69.891 100.568C68.8073 100.712 67.8831 100.033 67.601 98.72C67.008 95.9393 66.2556 93.1626 65.9857 90.3491C65.6749 87.1512 66.7381 84.166 68.5292 81.4957C69.1999 80.4938 69.298 79.5778 68.8646 78.4409C67.7032 75.4025 66.6441 72.3273 65.5399 69.2644C67.3924 68.7001 68.0099 68.0212 67.8463 66.774C67.6909 65.5554 66.9671 65.1546 64.9838 65.0197C61.5651 64.7866 58.4613 63.5066 55.3942 62.0917C51.9306 60.4968 48.884 58.3049 46.1155 55.7041C45.1995 54.8453 45.0809 53.6349 45.8047 52.678C46.5244 51.7252 47.7635 51.4798 48.7981 52.1832C50.1231 53.0787 51.3867 54.0602 52.6953 54.9762C55.2143 56.7428 57.946 58.0964 60.8822 59.0288C62.4852 59.5399 63.4257 59.0778 63.9533 57.4952C64.6403 55.4424 65.3027 53.3814 65.9775 51.3244C66.1206 56.0721 70.5289 59.4132 76.0659 57.2335C76.1763 57.5034 76.299 57.7692 76.3931 58.0473C78.266 63.4698 80.1553 68.8882 82.0078 74.3188C84.0442 80.2689 81.194 85.8181 75.1826 87.6665Z" fill="white"/>
<path d="M29.1937 33.9326C29.2101 35.049 28.245 36.0141 27.1286 36.0018C25.9958 35.9855 25.0839 35.0286 25.1207 33.8917C25.1575 32.7835 26.0449 31.9411 27.1695 31.9534C28.2859 31.9616 29.1773 32.8367 29.1937 33.9326Z" fill="white"/>
</svg>
